<svg width="24" height="24" viewBox="0 0 24 24" fill="none" xmlns="http://www.w3.org/2000/svg">
<g clip-path="url(#clip0_135_512)">
<circle cx="12" cy="12" r="11" stroke="#34C186" stroke-width="2"/>
<path d="M17.4197 9.71584C17.5989 9.53667 17.7273 9.28817 17.7273 9C17.7273 8.43501 17.2587 8 16.7273 8C16.4391 8 16.1906 8.12843 16.0115 8.3076L10.7265 13.5926L8.4197 11.3076C8.41954 11.3074 8.41939 11.3073 8.41923 11.3071C8.24355 11.1317 7.99587 11 7.72729 11C7.16735 11 6.72729 11.4401 6.72729 12C6.72729 12.2686 6.81815 12.5225 7.01146 12.7158L10.0115 15.7158C10.2048 15.9091 10.4587 16 10.7273 16C10.9766 16 11.2291 15.9064 11.4197 15.7158L17.4197 9.71584Z" fill="#34C186" stroke="#34C186" stroke-width="0.5"/>
</g>
<defs>
<clipPath id="clip0_135_512">
<rect width="24" height="24" fill="white"/>
</clipPath>
</defs>
</svg>
