<svg width="240" height="240" viewBox="0 0 240 240" fill="none" xmlns="http://www.w3.org/2000/svg">
<path d="M108.487 54.9884C108.508 54.575 108.517 54.1531 108.517 53.7354C108.521 38.4161 96.0877 26 80.7566 26C69.6527 26 60.076 32.5139 55.6371 41.9262C53.169 40.167 50.1229 39.1248 46.8237 39.1248C38.6179 39.1248 31.9646 45.5586 31.9646 53.4904C31.9646 54.6675 32.1122 55.8108 32.3907 56.9078C23.0331 58.8992 16 67.3622 16 77.5084C16 85.3924 20.2457 92.0057 26.5304 95.447C29.5147 97.0811 32.9589 98 36.6266 98H104.268C109.226 98 113.758 96.0736 117.225 92.8274C121.378 88.9384 124.004 83.1554 124.004 76.5213C124.004 65.9656 117.359 57.1485 108.487 54.9884Z" stroke="white" stroke-width="4"/>
<path d="M216.487 90.9884C216.508 90.575 216.517 90.1531 216.517 89.7354C216.521 74.4161 204.088 62 188.757 62C177.653 62 168.076 68.5139 163.637 77.9262C161.169 76.167 158.123 75.1248 154.824 75.1248C146.618 75.1248 139.965 81.5586 139.965 89.4904C139.965 90.6675 140.112 91.8108 140.391 92.9078C131.033 94.8992 124 103.362 124 113.508C124 121.392 128.246 128.006 134.53 131.447C137.515 133.081 140.959 134 144.627 134H212.268C217.226 134 221.758 132.074 225.225 128.827C229.378 124.938 232.004 119.155 232.004 112.521C232.004 101.966 225.359 93.1485 216.487 90.9884Z" stroke="white" stroke-width="4"/>
<path d="M53.5 98V180.5C52.8333 189.833 57.5 208.5 81.5 208.5H84.5M158 208.5C165.167 209 179.5 205.4 179.5 187C179.5 168.6 179.5 144 179.5 134" stroke="white" stroke-width="4" stroke-linecap="round"/>
<path d="M159 208.571C133.248 208.571 129.164 208.571 123 214.631M146.747 215.5C145.357 221.925 139.097 227.464 133.413 227.464C118.665 227.464 118.444 211.235 101.309 208.859L98 208.5M140.93 202.5C140.346 202.097 139.714 201.706 139.033 201.331C122.835 192.391 91.2479 198.113 90.438 210.984C89.6995 222.721 101.25 233.565 113.761 224" stroke="white" stroke-width="4" stroke-linecap="round"/>
</svg>
