<svg width="240" height="240" viewBox="0 0 240 240" fill="none" xmlns="http://www.w3.org/2000/svg">
<path d="M102.359 37.8491C102.359 33.1147 104.237 28.5765 107.588 25.2297C110.935 21.8786 115.473 20 120.208 20C124.942 20 129.48 21.8786 132.827 25.2297C136.178 28.5764 138.057 33.1144 138.057 37.8491C138.057 42.5837 136.178 47.1216 132.827 50.4684C129.48 53.8196 124.942 55.6981 120.208 55.6981C115.478 55.6937 110.939 53.8106 107.593 50.4639C104.246 47.1173 102.363 42.5791 102.359 37.8491Z" stroke="white" stroke-width="4"/>
<path d="M140.849 70.3756C135.377 65.0209 127.952 62.0089 120.208 62C112.463 62.0089 105.038 65.0209 99.566 70.3756C94.0896 75.7264 91.0091 82.986 91 90.5585V106.679C91 108.888 92.7909 110.679 95 110.679H120.208H145.415C147.624 110.679 149.415 108.888 149.415 106.679V90.5585C149.406 82.9859 146.326 75.7259 140.849 70.3756Z" stroke="white" stroke-width="4"/>
<path d="M140.849 70.3756C135.377 65.0209 127.952 62.0089 120.208 62C112.463 62.0089 105.038 65.0209 99.566 70.3756C94.0896 75.7264 91.0091 82.986 91 90.5585V106.679C91 108.888 92.7909 110.679 95 110.679H120.208H145.415C147.624 110.679 149.415 108.888 149.415 106.679V90.5585C149.406 82.9859 146.326 75.7259 140.849 70.3756Z" stroke="white" stroke-width="4"/>
<path d="M61.3585 146.981C61.3585 142.247 63.2371 137.709 66.5882 134.362C69.9349 131.011 74.473 129.132 79.2076 129.132C83.9422 129.132 88.4801 131.011 91.8269 134.362C95.1781 137.708 97.0566 142.247 97.0566 146.981C97.0566 151.716 95.1781 156.254 91.8269 159.6C88.4802 162.952 83.9422 164.83 79.2076 164.83C74.4776 164.826 69.9395 162.943 66.5928 159.596C63.2461 156.249 61.363 151.711 61.3585 146.981Z" stroke="white" stroke-width="4"/>
<path d="M99.8491 179.376C94.3768 174.021 86.9521 171.009 79.2076 171C71.4629 171.009 64.0379 174.021 58.566 179.376C53.0896 184.726 50.0091 191.986 50 199.558V215.679C50 217.888 51.7909 219.679 54 219.679H104.415C106.624 219.679 108.415 217.888 108.415 215.679V199.558C108.406 191.986 105.326 184.726 99.8491 179.376Z" stroke="white" stroke-width="4"/>
<path d="M142.491 146.981C142.491 142.247 144.369 137.709 147.72 134.362C151.067 131.011 155.605 129.132 160.34 129.132C165.074 129.132 169.612 131.011 172.959 134.362C176.31 137.708 178.189 142.247 178.189 146.981C178.189 151.716 176.31 156.254 172.959 159.6C169.612 162.952 165.074 164.83 160.34 164.83C155.61 164.826 151.072 162.943 147.725 159.596C144.378 156.249 142.495 151.711 142.491 146.981Z" stroke="white" stroke-width="4"/>
<path d="M180.849 179.376C175.377 174.021 167.952 171.009 160.208 171C152.463 171.009 145.038 174.021 139.566 179.376C134.09 184.726 131.009 191.986 131 199.558V215.679C131 217.888 132.791 219.679 135 219.679H185.415C187.624 219.679 189.415 217.888 189.415 215.679V199.558C189.406 191.986 186.326 184.726 180.849 179.376Z" stroke="white" stroke-width="4"/>
<path d="M142.491 146.981C142.491 142.247 144.369 137.709 147.72 134.362C151.067 131.011 155.605 129.132 160.34 129.132C165.074 129.132 169.612 131.011 172.959 134.362C176.31 137.708 178.189 142.247 178.189 146.981C178.189 151.716 176.31 156.254 172.959 159.6C169.612 162.952 165.074 164.83 160.34 164.83C155.61 164.826 151.072 162.943 147.725 159.596C144.378 156.249 142.495 151.711 142.491 146.981Z" stroke="white" stroke-width="4"/>
<path d="M180.849 179.376C175.377 174.021 167.952 171.009 160.208 171C152.463 171.009 145.038 174.021 139.566 179.376C134.09 184.726 131.009 191.986 131 199.558V215.679C131 217.888 132.791 219.679 135 219.679H185.415C187.624 219.679 189.415 217.888 189.415 215.679V199.558C189.406 191.986 186.326 184.726 180.849 179.376Z" stroke="white" stroke-width="4"/>
<path d="M32.3585 72.9811C32.3585 68.2467 34.2371 63.7086 37.5882 60.3618C40.9349 57.0106 45.473 55.1321 50.2076 55.1321C54.9422 55.1321 59.4801 57.0106 62.8269 60.3618C66.1781 63.7085 68.0566 68.2465 68.0566 72.9811C68.0566 77.7158 66.1781 82.2537 62.8269 85.6005C59.4802 88.9516 54.9422 90.8302 50.2076 90.8302C45.4776 90.8257 40.9395 88.9427 37.5928 85.596C34.2461 82.2493 32.363 77.7112 32.3585 72.9811Z" stroke="white" stroke-width="4"/>
<path d="M77.1252 114.5C75.6708 111.121 73.5517 108.016 70.8491 105.376C65.3768 100.021 57.9521 97.0089 50.2076 97C42.4629 97.0089 35.0379 100.021 29.566 105.376C24.0896 110.726 21.0091 117.986 21 125.558V141.679C21 143.888 22.7909 145.679 25 145.679H35.6038H42.9057" stroke="white" stroke-width="4" stroke-linecap="round"/>
<path d="M171.491 72.9811C171.491 68.2467 173.369 63.7086 176.72 60.3618C180.067 57.0106 184.605 55.1321 189.34 55.1321C194.074 55.1321 198.612 57.0106 201.959 60.3618C205.31 63.7085 207.189 68.2465 207.189 72.9811C207.189 77.7158 205.31 82.2537 201.959 85.6005C198.612 88.9516 194.074 90.8302 189.34 90.8302C184.61 90.8257 180.072 88.9427 176.725 85.596C173.378 82.2493 171.495 77.7112 171.491 72.9811Z" stroke="white" stroke-width="4"/>
<path d="M162 115.199C163.456 111.55 165.678 108.197 168.566 105.376C174.038 100.021 181.463 97.0089 189.208 97C196.952 97.0089 204.377 100.021 209.849 105.376C215.326 110.726 218.406 117.986 218.415 125.558V141.679C218.415 143.888 216.624 145.679 214.415 145.679H203.811H196.509H189.208" stroke="white" stroke-width="4" stroke-linecap="round"/>
<path d="M99.8491 179.376C94.3768 174.021 86.9521 171.009 79.2076 171C71.4629 171.009 64.0379 174.021 58.566 179.376C53.0896 184.726 50.0091 191.986 50 199.558V215.679C50 217.888 51.7909 219.679 54 219.679H79.2076H104.415C106.624 219.679 108.415 217.888 108.415 215.679V199.558C108.406 191.986 105.326 184.726 99.8491 179.376Z" stroke="white" stroke-width="4"/>
<path d="M41 123L47 129L59 117" stroke="#34C186" stroke-width="4" stroke-linecap="round"/>
<path d="M183 123L189 129L201 117" stroke="#34C186" stroke-width="4" stroke-linecap="round"/>
<path d="M72 197L78 203L90 191" stroke="#34C186" stroke-width="4" stroke-linecap="round"/>
<path d="M112 88L118 94L130 82" stroke="#34C186" stroke-width="4" stroke-linecap="round"/>
<path d="M153 197L159 203L171 191" stroke="#34C186" stroke-width="4" stroke-linecap="round"/>
</svg>
