<svg width="240" height="240" viewBox="0 0 240 240" fill="none" xmlns="http://www.w3.org/2000/svg">
<path d="M208 180V200C208 206.627 190.091 212 168 212C145.909 212 128 206.627 128 200V180" stroke="white" stroke-width="4" stroke-linecap="round"/>
<path d="M112 156V176C112 182.627 94.0914 188 72 188C49.9086 188 32 182.627 32 176V156" stroke="white" stroke-width="4" stroke-linecap="round"/>
<path d="M112 132V152C112 158.627 94.0914 164 72 164C49.9086 164 32 158.627 32 152V132" stroke="white" stroke-width="4" stroke-linecap="round"/>
<path d="M112 180V200C112 206.627 94.0914 212 72 212C49.9086 212 32 206.627 32 200V180" stroke="white" stroke-width="4" stroke-linecap="round"/>
<path d="M208 152V176C208 182.627 190.091 188 168 188C145.909 188 128 182.627 128 176V152" stroke="white" stroke-width="4"/>
<path d="M208 128V152C208 158.627 190.091 164 168 164C145.909 164 128 158.627 128 152V128" stroke="white" stroke-width="4"/>
<ellipse cx="168" cy="128" rx="40" ry="12" stroke="white" stroke-width="4"/>
<path d="M145.777 85.7142L164.349 105.819C165.933 107.534 168.642 107.534 170.225 105.819L188.798 85.7142C191.164 83.1523 189.347 79 185.859 79L177.144 79L177.144 44.5C177.144 43.3954 176.248 42.5 175.144 42.5L159.431 42.5C158.326 42.5 157.431 43.3954 157.431 44.5L157.431 79L148.715 79C145.227 79 143.41 83.1523 145.777 85.7142Z" stroke="#34C186" stroke-width="4"/>
<path d="M112 104V128C112 134.627 94.0914 140 72 140C49.9086 140 32 134.627 32 128V104" stroke="white" stroke-width="4"/>
<ellipse cx="72" cy="104" rx="40" ry="12" stroke="white" stroke-width="4"/>
<path d="M49.7767 61.7142L68.349 81.8193C69.9327 83.5337 72.6417 83.5337 74.2254 81.8193L92.7977 61.7142C95.1643 59.1523 93.3472 55 89.8595 55L81.1436 55L81.1436 20.5C81.1436 19.3954 80.2482 18.5 79.1436 18.5L63.4308 18.5C62.3262 18.5 61.4308 19.3954 61.4308 20.5L61.4308 55L52.7149 55C49.2272 55 47.4101 59.1523 49.7767 61.7142Z" stroke="#34C186" stroke-width="4"/>
</svg>
