<svg width="240" height="240" viewBox="0 0 240 240" fill="none" xmlns="http://www.w3.org/2000/svg">
<path d="M53.5 98V180.5C52.8333 189.833 57.5 208.5 81.5 208.5H158C165.167 209 179.5 205.4 179.5 187C179.5 168.6 179.5 144 179.5 134" stroke="#34C186" stroke-width="4" stroke-linecap="round"/>
<path d="M108.487 54.9884C108.508 54.575 108.517 54.1531 108.517 53.7354C108.521 38.4161 96.0877 26 80.7566 26C69.6527 26 60.076 32.5139 55.6371 41.9262C53.169 40.167 50.1229 39.1248 46.8237 39.1248C38.6179 39.1248 31.9646 45.5586 31.9646 53.4904C31.9646 54.6675 32.1122 55.8108 32.3907 56.9078C23.0331 58.8992 16 67.3622 16 77.5084C16 85.3924 20.2457 92.0057 26.5304 95.447C29.5147 97.0811 32.9589 98 36.6266 98H104.268C109.226 98 113.758 96.0736 117.225 92.8274C121.378 88.9384 124.004 83.1554 124.004 76.5213C124.004 65.9656 117.359 57.1485 108.487 54.9884Z" stroke="white" stroke-width="4"/>
<path d="M216.487 90.9884C216.508 90.575 216.517 90.1531 216.517 89.7354C216.521 74.4161 204.088 62 188.757 62C177.653 62 168.076 68.5139 163.637 77.9262C161.169 76.167 158.123 75.1248 154.824 75.1248C146.618 75.1248 139.965 81.5586 139.965 89.4904C139.965 90.6675 140.112 91.8108 140.391 92.9078C131.033 94.8992 124 103.362 124 113.508C124 121.392 128.246 128.006 134.53 131.447C137.515 133.081 140.959 134 144.627 134H212.268C217.226 134 221.758 132.074 225.225 128.827C229.378 124.938 232.004 119.155 232.004 112.521C232.004 101.966 225.359 93.1485 216.487 90.9884Z" stroke="white" stroke-width="4"/>
<path d="M112.242 142.494C112.253 142.287 112.257 142.077 112.257 141.868C112.259 134.208 106.042 128 98.3771 128C92.8254 128 88.0372 131.257 85.8178 135.963C84.5838 135.083 83.0609 134.562 81.4113 134.562C77.3086 134.562 73.982 137.779 73.982 141.745C73.982 142.334 74.0558 142.905 74.195 143.454C69.5164 144.45 66 148.681 66 153.754C66 157.696 68.1228 161.003 71.265 162.723C72.7571 163.541 74.4791 164 76.3129 164H110.133C112.611 164 114.877 163.037 116.611 161.414C118.687 159.469 120 156.578 120 153.261C120 147.983 116.678 143.574 112.242 142.494Z" stroke="#34C186" stroke-width="4"/>
<path d="M183.242 28.4942C183.253 28.2875 183.257 28.0766 183.257 27.8677C183.259 20.2081 177.042 14 169.377 14C163.825 14 159.037 17.257 156.818 21.9631C155.584 21.0835 154.061 20.5624 152.411 20.5624C148.309 20.5624 144.982 23.7793 144.982 27.7452C144.982 28.3337 145.056 28.9054 145.195 29.4539C140.516 30.4496 137 34.6811 137 39.7542C137 43.6962 139.123 47.0028 142.265 48.7235C143.757 49.5406 145.479 50 147.313 50H181.133C183.611 50 185.877 49.0368 187.611 47.4137C189.687 45.4692 191 42.5777 191 39.2606C191 33.9828 187.678 29.5743 183.242 28.4942Z" stroke="#34C186" stroke-width="4"/>
</svg>
