<svg width="240" height="240" viewBox="0 0 240 240" fill="none" xmlns="http://www.w3.org/2000/svg">
<g clip-path="url(#clip0_136_576)">
<path fill-rule="evenodd" clip-rule="evenodd" d="M157.193 32.0647C136.573 11.4451 103.142 11.4451 82.5227 32.0647C64.3633 50.2242 62.1966 78.3204 76.0228 98.851C72.1883 98.3053 68.3182 98.069 64.4529 98.1422C52.2518 74.6381 56.0124 44.9987 75.7345 25.2765C100.103 0.90783 139.613 0.90783 163.981 25.2765C183.711 45.0057 187.467 74.6593 175.25 98.1674C171.207 98.2986 167.174 98.7684 163.195 99.5769C177.568 78.9869 175.568 50.4392 157.193 32.0647Z" fill="#34C186"/>
<path fill-rule="evenodd" clip-rule="evenodd" d="M148.625 214.277C134.265 204.832 124.8 188.583 124.8 170.129C124.8 150.063 115.326 132.213 100.622 120.803C97.296 122.101 94.0754 123.75 91.0165 125.749C105.577 135.158 115.2 151.522 115.2 170.129C115.2 190.043 124.53 207.773 139.042 219.194C142.359 217.903 145.572 216.264 148.625 214.277Z" fill="#34C186"/>
<path fill-rule="evenodd" clip-rule="evenodd" d="M214.935 132.794C199.726 117.585 177.546 113.594 158.679 120.822L154.118 117.821C152.407 116.695 150.652 115.662 148.862 114.722C172.365 102.524 202.002 106.285 221.723 126.006C246.092 150.374 246.092 189.884 221.723 214.253C201.927 234.049 172.137 237.764 148.591 225.395C150.386 224.464 152.146 223.439 153.862 222.322L158.437 219.343C177.357 226.698 199.661 222.739 214.935 207.464C235.555 186.845 235.555 153.414 214.935 132.794Z" fill="white"/>
<path fill-rule="evenodd" clip-rule="evenodd" d="M130.405 146.427C134.624 138.042 141.014 130.934 148.84 125.841C145.797 123.839 142.592 122.184 139.282 120.876C133.97 125.016 129.343 129.997 125.603 135.62C127.486 139.061 129.097 142.673 130.405 146.427ZM109.595 193.83C105.389 202.189 99.0268 209.279 91.2338 214.369C94.302 216.352 97.5309 217.985 100.864 219.267C106.115 215.151 110.691 210.209 114.396 204.638C112.514 201.197 110.903 197.584 109.595 193.83Z" fill="#34C186"/>
<path d="M81.122 120.746C62.298 113.622 40.2206 117.638 25.0647 132.794C4.44507 153.414 4.44507 186.845 25.0647 207.464C40.2858 222.685 62.4879 226.67 81.3645 219.42L86.0232 222.431C87.7317 223.535 89.4825 224.548 91.2682 225.469C67.7441 237.749 38.0339 234.01 18.2765 214.252C-6.09217 189.884 -6.09217 150.374 18.2765 126.006C37.9577 106.324 67.5151 102.539 90.9958 114.648C89.2148 115.578 87.4692 116.599 85.7661 117.712L81.122 120.746Z" fill="white"/>
</g>
<defs>
<clipPath id="clip0_136_576">
<rect width="240" height="240" fill="white"/>
</clipPath>
</defs>
</svg>
