<svg width="240" height="240" viewBox="0 0 240 240" fill="none" xmlns="http://www.w3.org/2000/svg">
<g clip-path="url(#clip0_130_232)">
<rect x="127" y="190" width="96" height="32" rx="4" stroke="white" stroke-width="4"/>
<rect x="127" y="158" width="96" height="32" rx="4" stroke="white" stroke-width="4"/>
<path d="M135 206H159" stroke="white" stroke-width="4" stroke-linecap="round"/>
<path d="M210 200V212" stroke="white" stroke-width="4" stroke-linecap="round"/>
<path d="M202 200V212" stroke="white" stroke-width="4" stroke-linecap="round"/>
<path d="M194 200V212" stroke="white" stroke-width="4" stroke-linecap="round"/>
<path d="M210 168V180" stroke="white" stroke-width="4" stroke-linecap="round"/>
<path d="M202 168V180" stroke="white" stroke-width="4" stroke-linecap="round"/>
<path d="M194 168V180" stroke="white" stroke-width="4" stroke-linecap="round"/>
<path d="M135 174H159" stroke="white" stroke-width="4" stroke-linecap="round"/>
<rect x="23" y="89" width="96" height="32" rx="4" stroke="white" stroke-width="4"/>
<rect x="23" y="57" width="96" height="32" rx="4" stroke="white" stroke-width="4"/>
<path d="M31 105H55" stroke="white" stroke-width="4" stroke-linecap="round"/>
<path d="M106 99V111" stroke="white" stroke-width="4" stroke-linecap="round"/>
<path d="M98 99V111" stroke="white" stroke-width="4" stroke-linecap="round"/>
<path d="M90 99V111" stroke="white" stroke-width="4" stroke-linecap="round"/>
<path d="M106 67V79" stroke="white" stroke-width="4" stroke-linecap="round"/>
<path d="M98 67V79" stroke="white" stroke-width="4" stroke-linecap="round"/>
<path d="M90 67V79" stroke="white" stroke-width="4" stroke-linecap="round"/>
<path d="M31 73H55" stroke="white" stroke-width="4" stroke-linecap="round"/>
<path d="M229.965 190.5C235.092 185.699 238.333 178.56 238.333 170.37C238.333 157.339 230.131 146.454 219.178 143.787C219.204 143.277 219.214 142.756 219.214 142.24C219.219 123.328 203.87 108 184.944 108C171.236 108 159.413 116.042 153.933 127.661C150.886 125.489 147.126 124.203 143.053 124.203C132.922 124.203 124.709 132.146 124.709 141.938C124.709 143.391 124.891 144.802 125.235 146.156C113.683 148.615 105 159.063 105 171.588C105 181.321 110.241 189.486 118 193.734" stroke="white" stroke-width="4" stroke-linecap="round"/>
<path d="M126.965 84.5C132.092 79.699 135.333 72.5597 135.333 64.3697C135.333 51.3385 127.131 40.4536 116.178 37.7869C116.204 37.2765 116.214 36.7557 116.214 36.24C116.219 17.328 100.87 2 81.9436 2C68.2356 2 56.4129 10.0416 50.9329 21.6613C47.886 19.4895 44.1256 18.2029 40.0526 18.2029C29.9224 18.2029 21.7086 26.1456 21.7086 35.9376C21.7086 37.3907 21.8909 38.8021 22.2347 40.1564C10.6825 42.6148 2 53.0627 2 65.5884C2 75.3213 7.24136 83.4856 15 87.734" stroke="white" stroke-width="4" stroke-linecap="round"/>
</g>
<defs>
<clipPath id="clip0_130_232">
<rect width="240" height="240" fill="white"/>
</clipPath>
</defs>
</svg>
