<svg width="240" height="240" viewBox="0 0 240 240" fill="none" xmlns="http://www.w3.org/2000/svg">
<path d="M208 156V176C208 182.627 190.091 188 168 188C145.909 188 128 182.627 128 176V156" stroke="white" stroke-width="4" stroke-linecap="round"/>
<path d="M208 180V200C208 206.627 190.091 212 168 212C145.909 212 128 206.627 128 200V180" stroke="white" stroke-width="4" stroke-linecap="round"/>
<path d="M112 104V128C112 134.627 94.0914 140 72 140C49.9086 140 32 134.627 32 128V104" stroke="white" stroke-width="4"/>
<ellipse cx="72" cy="104" rx="40" ry="12" stroke="white" stroke-width="4"/>
<path d="M112 132V152C112 158.627 94.0914 164 72 164C49.9086 164 32 158.627 32 152V132" stroke="white" stroke-width="4" stroke-linecap="round"/>
<path d="M112 156V176C112 182.627 94.0914 188 72 188C49.9086 188 32 182.627 32 176V156" stroke="white" stroke-width="4" stroke-linecap="round"/>
<path d="M112 180V200C112 206.627 94.0914 212 72 212C49.9086 212 32 206.627 32 200V180" stroke="white" stroke-width="4" stroke-linecap="round"/>
<ellipse cx="168" cy="128" rx="40" ry="12" stroke="white" stroke-width="4"/>
<path d="M208 128V152C208 158.627 190.091 164 168 164C145.909 164 128 158.627 128 152V128" stroke="white" stroke-width="4"/>
</svg>
