<svg width="240" height="240" viewBox="0 0 240 240" fill="none" xmlns="http://www.w3.org/2000/svg">
<rect x="52" y="110" width="136" height="112" rx="8" stroke="white" stroke-width="4"/>
<path d="M128 167.859C132.782 165.093 136 159.922 136 154C136 145.163 128.837 138 120 138C111.163 138 104 145.163 104 154C104 159.922 107.218 165.093 112 167.859V186C112 190.418 115.582 194 120 194C124.418 194 128 190.418 128 186V167.859Z" stroke="white" stroke-width="4"/>
<path d="M120 10C89.0721 10 64 35.0721 64 66V78C64 84.6274 69.3726 90 76 90C82.6274 90 88 84.6274 88 78V66C88 48.3269 102.327 34 120 34C137.673 34 152 48.3269 152 66V110H176V66C176 35.0721 150.928 10 120 10Z" stroke="white" stroke-width="4"/>
</svg>
