<svg width="240" height="240" viewBox="0 0 240 240" fill="none" xmlns="http://www.w3.org/2000/svg">
<path d="M102.359 37.8491C102.359 33.1147 104.237 28.5765 107.588 25.2297C110.935 21.8786 115.473 20 120.208 20C124.942 20 129.48 21.8786 132.827 25.2297C136.178 28.5764 138.057 33.1144 138.057 37.8491C138.057 42.5837 136.178 47.1216 132.827 50.4684C129.48 53.8196 124.942 55.6981 120.208 55.6981C115.478 55.6937 110.939 53.8106 107.593 50.4639C104.246 47.1173 102.363 42.5791 102.359 37.8491Z" stroke="white" stroke-width="4"/>
<path d="M61.3585 146.981C61.3585 142.247 63.2371 137.709 66.5882 134.362C69.9349 131.011 74.473 129.132 79.2076 129.132C83.9422 129.132 88.4801 131.011 91.8269 134.362C95.1781 137.708 97.0566 142.247 97.0566 146.981C97.0566 151.716 95.1781 156.254 91.8269 159.6C88.4802 162.952 83.9422 164.83 79.2076 164.83C74.4776 164.826 69.9395 162.943 66.5928 159.596C63.2461 156.249 61.363 151.711 61.3585 146.981Z" stroke="white" stroke-width="4"/>
<path d="M99.8491 179.376C94.3768 174.021 86.9521 171.009 79.2076 171C71.4629 171.009 64.0379 174.021 58.566 179.376C53.0896 184.726 50.0091 191.986 50 199.558V215.679C50 217.888 51.7909 219.679 54 219.679H104.415C106.624 219.679 108.415 217.888 108.415 215.679V199.558C108.406 191.986 105.326 184.726 99.8491 179.376Z" stroke="white" stroke-width="4"/>
<path d="M142.491 146.981C142.491 142.247 144.369 137.709 147.72 134.362C151.067 131.011 155.605 129.132 160.34 129.132C165.074 129.132 169.612 131.011 172.959 134.362C176.31 137.708 178.189 142.247 178.189 146.981C178.189 151.716 176.31 156.254 172.959 159.6C169.612 162.952 165.074 164.83 160.34 164.83C155.61 164.826 151.072 162.943 147.725 159.596C144.378 156.249 142.495 151.711 142.491 146.981Z" stroke="white" stroke-width="4"/>
<path d="M180.849 179.376C175.377 174.021 167.952 171.009 160.208 171C152.463 171.009 145.038 174.021 139.566 179.376C134.09 184.726 131.009 191.986 131 199.558V215.679C131 217.888 132.791 219.679 135 219.679H185.415C187.624 219.679 189.415 217.888 189.415 215.679V199.558C189.406 191.986 186.326 184.726 180.849 179.376Z" stroke="white" stroke-width="4"/>
<path d="M142.491 146.981C142.491 142.247 144.369 137.709 147.72 134.362C151.067 131.011 155.605 129.132 160.34 129.132C165.074 129.132 169.612 131.011 172.959 134.362C176.31 137.708 178.189 142.247 178.189 146.981C178.189 151.716 176.31 156.254 172.959 159.6C169.612 162.952 165.074 164.83 160.34 164.83C155.61 164.826 151.072 162.943 147.725 159.596C144.378 156.249 142.495 151.711 142.491 146.981Z" stroke="white" stroke-width="4"/>
<path d="M180.849 179.376C175.377 174.021 167.952 171.009 160.208 171C152.463 171.009 145.038 174.021 139.566 179.376C134.09 184.726 131.009 191.986 131 199.558V215.679C131 217.888 132.791 219.679 135 219.679H185.415C187.624 219.679 189.415 217.888 189.415 215.679V199.558C189.406 191.986 186.326 184.726 180.849 179.376Z" stroke="white" stroke-width="4"/>
<path d="M99.566 70.3756C105.038 65.0209 112.463 62.0089 120.208 62C127.952 62.0089 135.377 65.0209 140.849 70.3756C146.326 75.7259 149.406 82.9859 149.415 90.5585V106.679C149.415 108.888 147.624 110.679 145.415 110.679H120.208H95C92.7909 110.679 91 108.888 91 106.679V98.6189" stroke="white" stroke-width="4" stroke-linecap="round"/>
<path d="M77.1985 53C77.9683 51.6667 79.8928 51.6667 80.6626 53L100.581 87.5C101.351 88.8333 100.389 90.5 98.8491 90.5H59.012C57.4724 90.5 56.5101 88.8333 57.2799 87.5L77.1985 53Z" stroke="white" stroke-width="4"/>
<path d="M78.9305 66V75" stroke="white" stroke-width="4" stroke-linecap="round"/>
<path d="M78.9305 81.5V83.5" stroke="white" stroke-width="4" stroke-linecap="round"/>
<path d="M117.5 63L113.089 87.5055C113.033 87.8166 113.127 88.1359 113.344 88.3666L119.794 95.2465C120.18 95.6587 120.831 95.6692 121.23 95.2697L128.113 88.3872C128.354 88.146 128.456 87.7984 128.382 87.4652L123 63" stroke="white" stroke-width="4" stroke-linecap="round"/>
</svg>
