<svg width="240" height="240" viewBox="0 0 240 240" fill="none" xmlns="http://www.w3.org/2000/svg">
<path d="M120 18C89.0721 18 64 43.0721 64 74V110H88V74C88 56.3269 102.327 42 120 42C137.673 42 152 56.3269 152 74V110H176V74C176 43.0721 150.928 18 120 18Z" stroke="#34C186" stroke-width="4"/>
<rect x="52" y="110" width="136" height="112" rx="8" stroke="white" stroke-width="4"/>
<path d="M128 167.859C132.782 165.093 136 159.922 136 154C136 145.163 128.837 138 120 138C111.163 138 104 145.163 104 154C104 159.922 107.218 165.093 112 167.859V186C112 190.418 115.582 194 120 194C124.418 194 128 190.418 128 186V167.859Z" stroke="white" stroke-width="4"/>
</svg>
