<svg width="256" height="240" viewBox="0 0 256 240" fill="none" xmlns="http://www.w3.org/2000/svg">
<g clip-path="url(#clip0_205_12297)">
<path d="M94.7811 63.2239C93.4478 63.2239 92.3864 62.8399 91.5971 62.0719C90.8078 61.2933 90.4131 60.1626 90.4131 58.6799V56.1199C90.4131 54.6373 90.8078 53.5119 91.5971 52.7439C92.3864 51.9653 93.4478 51.5759 94.7811 51.5759C96.1038 51.5759 97.1171 51.9439 97.8211 52.6799C98.5358 53.4159 98.8931 54.4239 98.8931 55.7039V55.7839H97.5651V55.6559C97.5651 54.8133 97.3358 54.1253 96.8771 53.5919C96.4291 53.0479 95.7304 52.7759 94.7811 52.7759C93.8318 52.7759 93.0904 53.0693 92.5571 53.6559C92.0238 54.2319 91.7571 55.0426 91.7571 56.0879V58.7119C91.7571 59.7573 92.0238 60.5733 92.5571 61.1599C93.0904 61.7359 93.8318 62.0239 94.7811 62.0239C95.7304 62.0239 96.4291 61.7573 96.8771 61.2239C97.3358 60.6799 97.5651 59.9866 97.5651 59.1439V58.8879H98.8931V59.0959C98.8931 60.3759 98.5358 61.3839 97.8211 62.1199C97.1171 62.8559 96.1038 63.2239 94.7811 63.2239Z" fill="#151B23"/>
<path d="M101.047 62.9999V51.7999H102.311V62.9999H101.047Z" fill="#151B23"/>
<path d="M108.585 63.2239C107.795 63.2239 107.097 63.0586 106.489 62.7279C105.891 62.3973 105.422 61.9333 105.081 61.3359C104.75 60.7279 104.585 60.0133 104.585 59.1919V58.9839C104.585 58.1733 104.75 57.4639 105.081 56.8559C105.422 56.2479 105.891 55.7786 106.489 55.4479C107.097 55.1173 107.795 54.9519 108.585 54.9519C109.374 54.9519 110.067 55.1173 110.665 55.4479C111.273 55.7786 111.742 56.2479 112.073 56.8559C112.414 57.4639 112.585 58.1733 112.585 58.9839V59.1919C112.585 60.0133 112.414 60.7279 112.073 61.3359C111.742 61.9333 111.273 62.3973 110.665 62.7279C110.067 63.0586 109.374 63.2239 108.585 63.2239ZM108.585 62.0879C109.417 62.0879 110.078 61.8266 110.569 61.3039C111.07 60.7706 111.321 60.0559 111.321 59.1599V59.0159C111.321 58.1199 111.07 57.4106 110.569 56.8879C110.078 56.3546 109.417 56.0879 108.585 56.0879C107.763 56.0879 107.102 56.3546 106.601 56.8879C106.099 57.4106 105.849 58.1199 105.849 59.0159V59.1599C105.849 60.0559 106.099 60.7706 106.601 61.3039C107.102 61.8266 107.763 62.0879 108.585 62.0879Z" fill="#151B23"/>
<path d="M117.851 63.1439C117.286 63.1439 116.763 63.0213 116.283 62.7759C115.814 62.5306 115.441 62.1679 115.163 61.6879C114.897 61.1973 114.763 60.6053 114.763 59.9119V55.1759H116.027V59.8159C116.027 60.5946 116.219 61.1599 116.603 61.5119C116.998 61.8639 117.526 62.0399 118.187 62.0399C118.934 62.0399 119.547 61.7946 120.027 61.3039C120.507 60.8133 120.747 60.0826 120.747 59.1119V55.1759H122.011V62.9999H120.779V61.6719H120.555C120.385 62.0453 120.091 62.3866 119.675 62.6959C119.259 62.9946 118.651 63.1439 117.851 63.1439Z" fill="#151B23"/>
<path d="M127.968 63.2239C127.296 63.2239 126.677 63.0639 126.112 62.7439C125.547 62.4239 125.099 61.9599 124.768 61.3519C124.437 60.7439 124.272 60.0239 124.272 59.1919V58.9839C124.272 58.1519 124.437 57.4373 124.768 56.8399C125.099 56.2319 125.541 55.7679 126.096 55.4479C126.661 55.1173 127.285 54.9519 127.968 54.9519C128.512 54.9519 128.971 55.0266 129.344 55.1759C129.728 55.3146 130.037 55.4959 130.272 55.7199C130.507 55.9333 130.688 56.1626 130.816 56.4079H131.04V51.7999H132.304V62.9999H131.072V61.7039H130.848C130.635 62.0986 130.304 62.4506 129.856 62.7599C129.408 63.0693 128.779 63.2239 127.968 63.2239ZM128.304 62.1039C129.115 62.1039 129.771 61.8479 130.272 61.3359C130.784 60.8133 131.04 60.0879 131.04 59.1599V59.0159C131.04 58.0879 130.784 57.3679 130.272 56.8559C129.771 56.3333 129.115 56.0719 128.304 56.0719C127.504 56.0719 126.843 56.3333 126.32 56.8559C125.808 57.3679 125.552 58.0879 125.552 59.0159V59.1599C125.552 60.0879 125.808 60.8133 126.32 61.3359C126.843 61.8479 127.504 62.1039 128.304 62.1039Z" fill="#151B23"/>
<path d="M138.473 63.2239C137.705 63.2239 137.006 63.0639 136.377 62.7439C135.758 62.4239 135.268 61.9599 134.905 61.3519C134.542 60.7439 134.361 60.0079 134.361 59.1439V58.9199C134.361 58.0559 134.542 57.3199 134.905 56.7119C135.268 56.1039 135.758 55.6399 136.377 55.3199C137.006 54.9999 137.705 54.8399 138.473 54.8399C139.23 54.8399 139.881 54.9733 140.425 55.2399C140.969 55.5066 141.406 55.8746 141.737 56.3439C142.078 56.8026 142.302 57.3253 142.409 57.9119L140.457 58.3279C140.414 58.0079 140.318 57.7199 140.169 57.4639C140.02 57.2079 139.806 57.0053 139.529 56.8559C139.262 56.7066 138.926 56.6319 138.521 56.6319C138.116 56.6319 137.748 56.7226 137.417 56.9039C137.097 57.0746 136.841 57.3359 136.649 57.6879C136.468 58.0293 136.377 58.4506 136.377 58.9519V59.1119C136.377 59.6133 136.468 60.0399 136.649 60.3919C136.841 60.7333 137.097 60.9946 137.417 61.1759C137.748 61.3466 138.116 61.4319 138.521 61.4319C139.129 61.4319 139.588 61.2773 139.897 60.9679C140.217 60.6479 140.42 60.2319 140.505 59.7199L142.457 60.1839C142.318 60.7493 142.078 61.2666 141.737 61.7359C141.406 62.1946 140.969 62.5573 140.425 62.8239C139.881 63.0906 139.23 63.2239 138.473 63.2239Z" fill="#151B23"/>
<path d="M146.584 63.2239C146.019 63.2239 145.512 63.1279 145.064 62.9359C144.616 62.7333 144.259 62.4453 143.992 62.0719C143.736 61.6879 143.608 61.2239 143.608 60.6799C143.608 60.1359 143.736 59.6826 143.992 59.3199C144.259 58.9466 144.621 58.6693 145.08 58.4879C145.549 58.2959 146.083 58.1999 146.68 58.1999H148.856V57.7519C148.856 57.3786 148.739 57.0746 148.504 56.8399C148.269 56.5946 147.896 56.4719 147.384 56.4719C146.883 56.4719 146.509 56.5893 146.264 56.8239C146.019 57.0479 145.859 57.3413 145.784 57.7039L143.928 57.0799C144.056 56.6746 144.259 56.3066 144.536 55.9759C144.824 55.6346 145.203 55.3626 145.672 55.1599C146.152 54.9466 146.733 54.8399 147.416 54.8399C148.461 54.8399 149.288 55.1013 149.896 55.6239C150.504 56.1466 150.808 56.9039 150.808 57.8959V60.8559C150.808 61.1759 150.957 61.3359 151.256 61.3359H151.896V62.9999H150.552C150.157 62.9999 149.832 62.9039 149.576 62.7119C149.32 62.5199 149.192 62.2639 149.192 61.9439V61.9279H148.888C148.845 62.0559 148.749 62.2266 148.6 62.4399C148.451 62.6426 148.216 62.8239 147.896 62.9839C147.576 63.1439 147.139 63.2239 146.584 63.2239ZM146.936 61.5919C147.501 61.5919 147.96 61.4373 148.312 61.1279C148.675 60.8079 148.856 60.3866 148.856 59.8639V59.7039H146.824C146.451 59.7039 146.157 59.7839 145.944 59.9439C145.731 60.1039 145.624 60.3279 145.624 60.6159C145.624 60.9039 145.736 61.1386 145.96 61.3199C146.184 61.5013 146.509 61.5919 146.936 61.5919Z" fill="#151B23"/>
<path d="M153.37 62.9999V55.0639H155.354V55.9599H155.642C155.759 55.6399 155.951 55.4053 156.218 55.2559C156.495 55.1066 156.815 55.0319 157.178 55.0319H158.138V56.8239H157.146C156.634 56.8239 156.213 56.9626 155.882 57.2399C155.551 57.5066 155.386 57.9226 155.386 58.4879V62.9999H153.37Z" fill="#151B23"/>
<path d="M163.048 63.2239C162.259 63.2239 161.56 63.0586 160.952 62.7279C160.355 62.3866 159.886 61.9119 159.544 61.3039C159.214 60.6853 159.048 59.9599 159.048 59.1279V58.9359C159.048 58.1039 159.214 57.3839 159.544 56.7759C159.875 56.1573 160.339 55.6826 160.936 55.3519C161.534 55.0106 162.227 54.8399 163.016 54.8399C163.795 54.8399 164.472 55.0159 165.048 55.3679C165.624 55.7093 166.072 56.1893 166.392 56.8079C166.712 57.4159 166.872 58.1253 166.872 58.9359V59.6239H161.096C161.118 60.1679 161.32 60.6106 161.704 60.9519C162.088 61.2933 162.558 61.4639 163.112 61.4639C163.678 61.4639 164.094 61.3413 164.36 61.0959C164.627 60.8506 164.83 60.5786 164.968 60.2799L166.616 61.1439C166.467 61.4213 166.248 61.7253 165.96 62.0559C165.683 62.3759 165.31 62.6533 164.84 62.8879C164.371 63.1119 163.774 63.2239 163.048 63.2239ZM161.112 58.1199H164.824C164.782 57.6613 164.595 57.2933 164.264 57.0159C163.944 56.7386 163.523 56.5999 163 56.5999C162.456 56.5999 162.024 56.7386 161.704 57.0159C161.384 57.2933 161.187 57.6613 161.112 58.1199Z" fill="#151B23"/>
<path d="M100.844 83.2239C100.033 83.2239 99.3079 83.0799 98.6679 82.7919C98.0279 82.5039 97.5212 82.0719 97.1479 81.4959C96.7852 80.9093 96.6039 80.1786 96.6039 79.3039V78.9679H97.9319V79.3039C97.9319 80.2319 98.2039 80.9253 98.7479 81.3839C99.2919 81.8319 99.9906 82.0559 100.844 82.0559C101.719 82.0559 102.385 81.8586 102.844 81.4639C103.303 81.0693 103.532 80.5733 103.532 79.9759C103.532 79.5599 103.425 79.2293 103.212 78.9839C103.009 78.7386 102.721 78.5413 102.348 78.3919C101.975 78.2319 101.537 78.0933 101.036 77.9759L100.204 77.7679C99.5532 77.5973 98.9772 77.3893 98.4759 77.1439C97.9746 76.8986 97.5799 76.5786 97.2919 76.1839C97.0146 75.7786 96.8759 75.2613 96.8759 74.6319C96.8759 74.0026 97.0306 73.4586 97.3399 72.9999C97.6599 72.5413 98.1026 72.1893 98.6679 71.9439C99.2439 71.6986 99.9052 71.5759 100.652 71.5759C101.409 71.5759 102.087 71.7093 102.684 71.9759C103.292 72.2319 103.767 72.6159 104.108 73.1279C104.46 73.6293 104.636 74.2639 104.636 75.0319V75.7039H103.308V75.0319C103.308 74.4879 103.191 74.0506 102.956 73.7199C102.732 73.3893 102.417 73.1439 102.012 72.9839C101.617 72.8239 101.164 72.7439 100.652 72.7439C99.9159 72.7439 99.3239 72.9093 98.8759 73.2399C98.4279 73.5599 98.2039 74.0186 98.2039 74.6159C98.2039 75.0106 98.2999 75.3306 98.4919 75.5759C98.6839 75.8213 98.9559 76.0239 99.3079 76.1839C99.6599 76.3333 100.081 76.4666 100.572 76.5839L101.404 76.7919C102.055 76.9306 102.636 77.1226 103.148 77.3679C103.671 77.6026 104.087 77.9279 104.396 78.3439C104.705 78.7493 104.86 79.2826 104.86 79.9439C104.86 80.6053 104.695 81.1813 104.364 81.6719C104.033 82.1626 103.564 82.5466 102.956 82.8239C102.359 83.0906 101.655 83.2239 100.844 83.2239Z" fill="#151B23"/>
<path d="M110.56 83.2239C109.771 83.2239 109.078 83.0586 108.48 82.7279C107.883 82.3866 107.419 81.9119 107.088 81.3039C106.758 80.6959 106.592 79.9919 106.592 79.1919V78.9999C106.592 78.1893 106.758 77.4799 107.088 76.8719C107.419 76.2639 107.878 75.7946 108.464 75.4639C109.051 75.1226 109.723 74.9519 110.48 74.9519C111.216 74.9519 111.867 75.1119 112.432 75.4319C112.998 75.7413 113.44 76.1893 113.76 76.7759C114.08 77.3626 114.24 78.0506 114.24 78.8399V79.4159H107.856C107.888 80.2586 108.16 80.9199 108.672 81.3999C109.184 81.8693 109.824 82.1039 110.592 82.1039C111.264 82.1039 111.782 81.9493 112.144 81.6399C112.507 81.3306 112.784 80.9626 112.976 80.5359L114.064 81.0639C113.904 81.3946 113.68 81.7253 113.392 82.0559C113.115 82.3866 112.747 82.6639 112.288 82.8879C111.84 83.1119 111.264 83.2239 110.56 83.2239ZM107.872 78.3759H112.96C112.918 77.6506 112.667 77.0853 112.208 76.6799C111.76 76.2746 111.184 76.0719 110.48 76.0719C109.766 76.0719 109.179 76.2746 108.72 76.6799C108.262 77.0853 107.979 77.6506 107.872 78.3759Z" fill="#151B23"/>
<path d="M116.445 82.9999V75.1759H117.677V76.1359H117.901C118.04 75.7946 118.253 75.5439 118.541 75.3839C118.829 75.2239 119.208 75.1439 119.677 75.1439H120.605V76.2959H119.597C119.032 76.2959 118.573 76.4559 118.221 76.7759C117.88 77.0853 117.709 77.5706 117.709 78.2319V82.9999H116.445Z" fill="#151B23"/>
<path d="M124.46 82.9999L121.66 75.1759H123.004L125.356 82.0559H125.58L127.932 75.1759H129.276L126.476 82.9999H124.46Z" fill="#151B23"/>
<path d="M131.101 82.9999V75.1759H132.365V82.9999H131.101ZM131.741 73.9599C131.464 73.9599 131.229 73.8693 131.037 73.6879C130.856 73.5066 130.765 73.2773 130.765 72.9999C130.765 72.7119 130.856 72.4773 131.037 72.2959C131.229 72.1146 131.464 72.0239 131.741 72.0239C132.019 72.0239 132.248 72.1146 132.429 72.2959C132.611 72.4773 132.701 72.7119 132.701 72.9999C132.701 73.2773 132.611 73.5066 132.429 73.6879C132.248 73.8693 132.019 73.9599 131.741 73.9599Z" fill="#151B23"/>
<path d="M138.623 83.2239C137.866 83.2239 137.183 83.0639 136.575 82.7439C135.978 82.4133 135.503 81.9439 135.151 81.3359C134.81 80.7279 134.639 80.0079 134.639 79.1759V78.9999C134.639 78.1573 134.81 77.4373 135.151 76.8399C135.503 76.2319 135.978 75.7679 136.575 75.4479C137.183 75.1173 137.866 74.9519 138.623 74.9519C139.37 74.9519 140.005 75.0906 140.527 75.3679C141.061 75.6453 141.477 76.0133 141.775 76.4719C142.085 76.9306 142.282 77.4213 142.367 77.9439L141.135 78.1999C141.082 77.8159 140.954 77.4639 140.751 77.1439C140.559 76.8239 140.287 76.5679 139.935 76.3759C139.583 76.1839 139.151 76.0879 138.639 76.0879C138.117 76.0879 137.647 76.2053 137.231 76.4399C136.826 76.6746 136.501 77.0106 136.255 77.4479C136.021 77.8853 135.903 78.4079 135.903 79.0159V79.1599C135.903 79.7679 136.021 80.2906 136.255 80.7279C136.501 81.1653 136.826 81.5013 137.231 81.7359C137.647 81.9706 138.117 82.0879 138.639 82.0879C139.418 82.0879 140.01 81.8853 140.415 81.4799C140.831 81.0746 141.087 80.5733 141.183 79.9759L142.431 80.2479C142.314 80.7599 142.101 81.2453 141.791 81.7039C141.482 82.1626 141.061 82.5306 140.527 82.8079C140.005 83.0853 139.37 83.2239 138.623 83.2239Z" fill="#151B23"/>
<path d="M148.17 83.2239C147.38 83.2239 146.687 83.0586 146.09 82.7279C145.492 82.3866 145.028 81.9119 144.698 81.3039C144.367 80.6959 144.202 79.9919 144.202 79.1919V78.9999C144.202 78.1893 144.367 77.4799 144.698 76.8719C145.028 76.2639 145.487 75.7946 146.074 75.4639C146.66 75.1226 147.332 74.9519 148.09 74.9519C148.826 74.9519 149.476 75.1119 150.042 75.4319C150.607 75.7413 151.05 76.1893 151.37 76.7759C151.69 77.3626 151.85 78.0506 151.85 78.8399V79.4159H145.466C145.498 80.2586 145.77 80.9199 146.282 81.3999C146.794 81.8693 147.434 82.1039 148.202 82.1039C148.874 82.1039 149.391 81.9493 149.754 81.6399C150.116 81.3306 150.394 80.9626 150.586 80.5359L151.674 81.0639C151.514 81.3946 151.29 81.7253 151.002 82.0559C150.724 82.3866 150.356 82.6639 149.898 82.8879C149.45 83.1119 148.874 83.2239 148.17 83.2239ZM145.482 78.3759H150.57C150.527 77.6506 150.276 77.0853 149.818 76.6799C149.37 76.2746 148.794 76.0719 148.09 76.0719C147.375 76.0719 146.788 76.2746 146.33 76.6799C145.871 77.0853 145.588 77.6506 145.482 78.3759Z" fill="#151B23"/>
<path d="M157.207 83.2239C156.236 83.2239 155.415 82.9999 154.743 82.5519C154.081 82.1039 153.681 81.3946 153.543 80.4239L154.743 80.1519C154.828 80.6639 154.988 81.0693 155.223 81.3679C155.457 81.6559 155.745 81.8639 156.087 81.9919C156.439 82.1093 156.812 82.1679 157.207 82.1679C157.793 82.1679 158.257 82.0506 158.599 81.8159C158.94 81.5813 159.111 81.2666 159.111 80.8719C159.111 80.4666 158.945 80.1839 158.615 80.0239C158.295 79.8533 157.852 79.7146 157.287 79.6079L156.631 79.4959C156.129 79.4106 155.671 79.2773 155.255 79.0959C154.839 78.9146 154.508 78.6693 154.263 78.3599C154.017 78.0506 153.895 77.6613 153.895 77.1919C153.895 76.4879 154.167 75.9386 154.711 75.5439C155.255 75.1493 155.975 74.9519 156.871 74.9519C157.756 74.9519 158.471 75.1546 159.015 75.5599C159.569 75.9546 159.927 76.5146 160.087 77.2399L158.903 77.5439C158.807 76.9786 158.577 76.5839 158.215 76.3599C157.852 76.1253 157.404 76.0079 156.871 76.0079C156.337 76.0079 155.916 76.1093 155.607 76.3119C155.297 76.5039 155.143 76.7919 155.143 77.1759C155.143 77.5493 155.287 77.8266 155.575 78.0079C155.873 78.1786 156.268 78.3066 156.759 78.3919L157.415 78.5039C157.969 78.5999 158.465 78.7333 158.903 78.9039C159.351 79.0639 159.703 79.2986 159.959 79.6079C160.225 79.9173 160.359 80.3226 160.359 80.8239C160.359 81.5919 160.071 82.1839 159.495 82.5999C158.929 83.0159 158.167 83.2239 157.207 83.2239Z" fill="#151B23"/>
<path d="M142.366 178V166.8H144.926L147.902 177.152H148.11L151.086 166.8H153.646V178H152.35V167.68H152.126L149.166 178H146.846L143.886 167.68H143.662V178H142.366Z" fill="#151B23"/>
<path d="M159.938 178.224C159.127 178.224 158.402 178.08 157.762 177.792C157.122 177.504 156.615 177.072 156.242 176.496C155.879 175.909 155.698 175.179 155.698 174.304V173.968H157.026V174.304C157.026 175.232 157.298 175.925 157.842 176.384C158.386 176.832 159.085 177.056 159.938 177.056C160.813 177.056 161.479 176.859 161.938 176.464C162.397 176.069 162.626 175.573 162.626 174.976C162.626 174.56 162.519 174.229 162.306 173.984C162.103 173.739 161.815 173.541 161.442 173.392C161.069 173.232 160.631 173.093 160.13 172.976L159.298 172.768C158.647 172.597 158.071 172.389 157.57 172.144C157.069 171.899 156.674 171.579 156.386 171.184C156.109 170.779 155.97 170.261 155.97 169.632C155.97 169.003 156.125 168.459 156.434 168C156.754 167.541 157.197 167.189 157.762 166.944C158.338 166.699 158.999 166.576 159.746 166.576C160.503 166.576 161.181 166.709 161.778 166.976C162.386 167.232 162.861 167.616 163.202 168.128C163.554 168.629 163.73 169.264 163.73 170.032V170.704H162.402V170.032C162.402 169.488 162.285 169.051 162.05 168.72C161.826 168.389 161.511 168.144 161.106 167.984C160.711 167.824 160.258 167.744 159.746 167.744C159.01 167.744 158.418 167.909 157.97 168.24C157.522 168.56 157.298 169.019 157.298 169.616C157.298 170.011 157.394 170.331 157.586 170.576C157.778 170.821 158.05 171.024 158.402 171.184C158.754 171.333 159.175 171.467 159.666 171.584L160.498 171.792C161.149 171.931 161.73 172.123 162.242 172.368C162.765 172.603 163.181 172.928 163.49 173.344C163.799 173.749 163.954 174.283 163.954 174.944C163.954 175.605 163.789 176.181 163.458 176.672C163.127 177.163 162.658 177.547 162.05 177.824C161.453 178.091 160.749 178.224 159.938 178.224Z" fill="#151B23"/>
<path d="M168.326 178.224C167.761 178.224 167.254 178.128 166.806 177.936C166.358 177.733 166.001 177.445 165.734 177.072C165.478 176.688 165.35 176.224 165.35 175.68C165.35 175.136 165.478 174.683 165.734 174.32C166.001 173.947 166.364 173.669 166.822 173.488C167.292 173.296 167.825 173.2 168.422 173.2H170.598V172.752C170.598 172.379 170.481 172.075 170.246 171.84C170.012 171.595 169.638 171.472 169.126 171.472C168.625 171.472 168.252 171.589 168.006 171.824C167.761 172.048 167.601 172.341 167.526 172.704L165.67 172.08C165.798 171.675 166.001 171.307 166.278 170.976C166.566 170.635 166.945 170.363 167.414 170.16C167.894 169.947 168.476 169.84 169.158 169.84C170.204 169.84 171.03 170.101 171.638 170.624C172.246 171.147 172.55 171.904 172.55 172.896V175.856C172.55 176.176 172.7 176.336 172.998 176.336H173.638V178H172.294C171.9 178 171.574 177.904 171.318 177.712C171.062 177.52 170.934 177.264 170.934 176.944V176.928H170.63C170.588 177.056 170.492 177.227 170.342 177.44C170.193 177.643 169.958 177.824 169.638 177.984C169.318 178.144 168.881 178.224 168.326 178.224ZM168.678 176.592C169.244 176.592 169.702 176.437 170.054 176.128C170.417 175.808 170.598 175.387 170.598 174.864V174.704H168.566C168.193 174.704 167.9 174.784 167.686 174.944C167.473 175.104 167.366 175.328 167.366 175.616C167.366 175.904 167.478 176.139 167.702 176.32C167.926 176.501 168.252 176.592 168.678 176.592Z" fill="#151B23"/>
<path d="M178.684 178.224C177.916 178.224 177.218 178.064 176.588 177.744C175.97 177.424 175.479 176.96 175.116 176.352C174.754 175.744 174.572 175.008 174.572 174.144V173.92C174.572 173.056 174.754 172.32 175.116 171.712C175.479 171.104 175.97 170.64 176.588 170.32C177.218 170 177.916 169.84 178.684 169.84C179.442 169.84 180.092 169.973 180.636 170.24C181.18 170.507 181.618 170.875 181.948 171.344C182.29 171.803 182.514 172.325 182.62 172.912L180.668 173.328C180.626 173.008 180.53 172.72 180.38 172.464C180.231 172.208 180.018 172.005 179.74 171.856C179.474 171.707 179.138 171.632 178.732 171.632C178.327 171.632 177.959 171.723 177.628 171.904C177.308 172.075 177.052 172.336 176.86 172.688C176.679 173.029 176.588 173.451 176.588 173.952V174.112C176.588 174.613 176.679 175.04 176.86 175.392C177.052 175.733 177.308 175.995 177.628 176.176C177.959 176.347 178.327 176.432 178.732 176.432C179.34 176.432 179.799 176.277 180.108 175.968C180.428 175.648 180.631 175.232 180.716 174.72L182.668 175.184C182.53 175.749 182.29 176.267 181.948 176.736C181.618 177.195 181.18 177.557 180.636 177.824C180.092 178.091 179.442 178.224 178.684 178.224Z" fill="#151B23"/>
<path d="M187.121 178C186.599 178 186.172 177.84 185.841 177.52C185.521 177.189 185.361 176.752 185.361 176.208V171.728H183.377V170.064H185.361V167.6H187.377V170.064H189.553V171.728H187.377V175.856C187.377 176.176 187.527 176.336 187.825 176.336H189.361V178H187.121Z" fill="#151B23"/>
<path d="M191.378 178V170.064H193.394V178H191.378ZM192.386 169.136C192.023 169.136 191.714 169.019 191.458 168.784C191.213 168.549 191.09 168.24 191.09 167.856C191.09 167.472 191.213 167.163 191.458 166.928C191.714 166.693 192.023 166.576 192.386 166.576C192.759 166.576 193.069 166.693 193.314 166.928C193.559 167.163 193.682 167.472 193.682 167.856C193.682 168.24 193.559 168.549 193.314 168.784C193.069 169.019 192.759 169.136 192.386 169.136Z" fill="#151B23"/>
<path d="M197.292 178L194.764 170.064H196.908L198.748 176.528H199.036L200.876 170.064H203.02L200.492 178H197.292Z" fill="#151B23"/>
<path d="M206.67 178.224C206.105 178.224 205.598 178.128 205.15 177.936C204.702 177.733 204.345 177.445 204.078 177.072C203.822 176.688 203.694 176.224 203.694 175.68C203.694 175.136 203.822 174.683 204.078 174.32C204.345 173.947 204.708 173.669 205.166 173.488C205.636 173.296 206.169 173.2 206.766 173.2H208.942V172.752C208.942 172.379 208.825 172.075 208.59 171.84C208.356 171.595 207.982 171.472 207.47 171.472C206.969 171.472 206.596 171.589 206.35 171.824C206.105 172.048 205.945 172.341 205.87 172.704L204.014 172.08C204.142 171.675 204.345 171.307 204.622 170.976C204.91 170.635 205.289 170.363 205.758 170.16C206.238 169.947 206.82 169.84 207.502 169.84C208.548 169.84 209.374 170.101 209.982 170.624C210.59 171.147 210.894 171.904 210.894 172.896V175.856C210.894 176.176 211.044 176.336 211.342 176.336H211.982V178H210.638C210.244 178 209.918 177.904 209.662 177.712C209.406 177.52 209.278 177.264 209.278 176.944V176.928H208.974C208.932 177.056 208.836 177.227 208.686 177.44C208.537 177.643 208.302 177.824 207.982 177.984C207.662 178.144 207.225 178.224 206.67 178.224ZM207.022 176.592C207.588 176.592 208.046 176.437 208.398 176.128C208.761 175.808 208.942 175.387 208.942 174.864V174.704H206.91C206.537 174.704 206.244 174.784 206.03 174.944C205.817 175.104 205.71 175.328 205.71 175.616C205.71 175.904 205.822 176.139 206.046 176.32C206.27 176.501 206.596 176.592 207.022 176.592Z" fill="#151B23"/>
<path d="M215.918 178C215.395 178 214.969 177.84 214.638 177.52C214.318 177.189 214.158 176.752 214.158 176.208V171.728H212.174V170.064H214.158V167.6H216.174V170.064H218.35V171.728H216.174V175.856C216.174 176.176 216.323 176.336 216.622 176.336H218.158V178H215.918Z" fill="#151B23"/>
<path d="M223.67 178.224C222.88 178.224 222.171 178.064 221.542 177.744C220.912 177.424 220.416 176.96 220.054 176.352C219.691 175.744 219.51 175.013 219.51 174.16V173.904C219.51 173.051 219.691 172.32 220.054 171.712C220.416 171.104 220.912 170.64 221.542 170.32C222.171 170 222.88 169.84 223.67 169.84C224.459 169.84 225.168 170 225.798 170.32C226.427 170.64 226.923 171.104 227.286 171.712C227.648 172.32 227.83 173.051 227.83 173.904V174.16C227.83 175.013 227.648 175.744 227.286 176.352C226.923 176.96 226.427 177.424 225.798 177.744C225.168 178.064 224.459 178.224 223.67 178.224ZM223.67 176.432C224.288 176.432 224.8 176.235 225.206 175.84C225.611 175.435 225.814 174.859 225.814 174.112V173.952C225.814 173.205 225.611 172.635 225.206 172.24C224.811 171.835 224.299 171.632 223.67 171.632C223.051 171.632 222.539 171.835 222.134 172.24C221.728 172.635 221.526 173.205 221.526 173.952V174.112C221.526 174.859 221.728 175.435 222.134 175.84C222.539 176.235 223.051 176.432 223.67 176.432Z" fill="#151B23"/>
<path d="M229.691 178V170.064H231.675V170.96H231.963C232.08 170.64 232.272 170.405 232.539 170.256C232.816 170.107 233.136 170.032 233.499 170.032H234.459V171.824H233.467C232.955 171.824 232.533 171.963 232.203 172.24C231.872 172.507 231.707 172.923 231.707 173.488V178H229.691Z" fill="#151B23"/>
<path d="M25.6717 178.224C24.3384 178.224 23.277 177.84 22.4877 177.072C21.6984 176.293 21.3037 175.163 21.3037 173.68V171.12C21.3037 169.637 21.6984 168.512 22.4877 167.744C23.277 166.965 24.3384 166.576 25.6717 166.576C26.9944 166.576 28.0077 166.944 28.7117 167.68C29.4264 168.416 29.7837 169.424 29.7837 170.704V170.784H28.4557V170.656C28.4557 169.813 28.2264 169.125 27.7677 168.592C27.3197 168.048 26.621 167.776 25.6717 167.776C24.7224 167.776 23.981 168.069 23.4477 168.656C22.9144 169.232 22.6477 170.043 22.6477 171.088V173.712C22.6477 174.757 22.9144 175.573 23.4477 176.16C23.981 176.736 24.7224 177.024 25.6717 177.024C26.621 177.024 27.3197 176.757 27.7677 176.224C28.2264 175.68 28.4557 174.987 28.4557 174.144V173.888H29.7837V174.096C29.7837 175.376 29.4264 176.384 28.7117 177.12C28.0077 177.856 26.9944 178.224 25.6717 178.224Z" fill="#151B23"/>
<path d="M31.9373 178V166.8H33.2013V178H31.9373Z" fill="#151B23"/>
<path d="M39.4752 178.224C38.6859 178.224 37.9872 178.059 37.3792 177.728C36.7819 177.397 36.3125 176.933 35.9712 176.336C35.6405 175.728 35.4752 175.013 35.4752 174.192V173.984C35.4752 173.173 35.6405 172.464 35.9712 171.856C36.3125 171.248 36.7819 170.779 37.3792 170.448C37.9872 170.117 38.6859 169.952 39.4752 169.952C40.2645 169.952 40.9579 170.117 41.5552 170.448C42.1632 170.779 42.6325 171.248 42.9632 171.856C43.3045 172.464 43.4752 173.173 43.4752 173.984V174.192C43.4752 175.013 43.3045 175.728 42.9632 176.336C42.6325 176.933 42.1632 177.397 41.5552 177.728C40.9579 178.059 40.2645 178.224 39.4752 178.224ZM39.4752 177.088C40.3072 177.088 40.9685 176.827 41.4592 176.304C41.9605 175.771 42.2112 175.056 42.2112 174.16V174.016C42.2112 173.12 41.9605 172.411 41.4592 171.888C40.9685 171.355 40.3072 171.088 39.4752 171.088C38.6539 171.088 37.9925 171.355 37.4912 171.888C36.9899 172.411 36.7392 173.12 36.7392 174.016V174.16C36.7392 175.056 36.9899 175.771 37.4912 176.304C37.9925 176.827 38.6539 177.088 39.4752 177.088Z" fill="#151B23"/>
<path d="M48.7418 178.144C48.1765 178.144 47.6538 178.021 47.1738 177.776C46.7045 177.531 46.3312 177.168 46.0538 176.688C45.7872 176.197 45.6538 175.605 45.6538 174.912V170.176H46.9178V174.816C46.9178 175.595 47.1098 176.16 47.4938 176.512C47.8885 176.864 48.4165 177.04 49.0778 177.04C49.8245 177.04 50.4378 176.795 50.9178 176.304C51.3978 175.813 51.6378 175.083 51.6378 174.112V170.176H52.9018V178H51.6698V176.672H51.4458C51.2752 177.045 50.9818 177.387 50.5658 177.696C50.1498 177.995 49.5418 178.144 48.7418 178.144Z" fill="#151B23"/>
<path d="M58.8587 178.224C58.1867 178.224 57.568 178.064 57.0027 177.744C56.4374 177.424 55.9894 176.96 55.6587 176.352C55.328 175.744 55.1627 175.024 55.1627 174.192V173.984C55.1627 173.152 55.328 172.437 55.6587 171.84C55.9894 171.232 56.432 170.768 56.9867 170.448C57.552 170.117 58.176 169.952 58.8587 169.952C59.4027 169.952 59.8614 170.027 60.2347 170.176C60.6187 170.315 60.928 170.496 61.1627 170.72C61.3974 170.933 61.5787 171.163 61.7067 171.408H61.9307V166.8H63.1947V178H61.9627V176.704H61.7387C61.5254 177.099 61.1947 177.451 60.7467 177.76C60.2987 178.069 59.6694 178.224 58.8587 178.224ZM59.1947 177.104C60.0054 177.104 60.6614 176.848 61.1627 176.336C61.6747 175.813 61.9307 175.088 61.9307 174.16V174.016C61.9307 173.088 61.6747 172.368 61.1627 171.856C60.6614 171.333 60.0054 171.072 59.1947 171.072C58.3947 171.072 57.7334 171.333 57.2107 171.856C56.6987 172.368 56.4427 173.088 56.4427 174.016V174.16C56.4427 175.088 56.6987 175.813 57.2107 176.336C57.7334 176.848 58.3947 177.104 59.1947 177.104Z" fill="#151B23"/>
<path d="M69.4436 178.224C68.6863 178.224 68.0036 178.064 67.3956 177.744C66.7983 177.413 66.3236 176.944 65.9716 176.336C65.6303 175.728 65.4596 175.008 65.4596 174.176V174C65.4596 173.157 65.6303 172.437 65.9716 171.84C66.3236 171.232 66.7983 170.768 67.3956 170.448C68.0036 170.117 68.6863 169.952 69.4436 169.952C70.1903 169.952 70.8249 170.091 71.3476 170.368C71.8809 170.645 72.2969 171.013 72.5956 171.472C72.9049 171.931 73.1023 172.421 73.1876 172.944L71.9556 173.2C71.9023 172.816 71.7743 172.464 71.5716 172.144C71.3796 171.824 71.1076 171.568 70.7556 171.376C70.4036 171.184 69.9716 171.088 69.4596 171.088C68.9369 171.088 68.4676 171.205 68.0516 171.44C67.6463 171.675 67.3209 172.011 67.0756 172.448C66.8409 172.885 66.7236 173.408 66.7236 174.016V174.16C66.7236 174.768 66.8409 175.291 67.0756 175.728C67.3209 176.165 67.6463 176.501 68.0516 176.736C68.4676 176.971 68.9369 177.088 69.4596 177.088C70.2383 177.088 70.8303 176.885 71.2356 176.48C71.6516 176.075 71.9076 175.573 72.0036 174.976L73.2516 175.248C73.1343 175.76 72.9209 176.245 72.6116 176.704C72.3023 177.163 71.8809 177.531 71.3476 177.808C70.8249 178.085 70.1903 178.224 69.4436 178.224Z" fill="#151B23"/>
<path d="M75.4061 178V166.8H76.6701V178H75.4061Z" fill="#151B23"/>
<path d="M81.584 178.224C81.0186 178.224 80.512 178.128 80.064 177.936C79.616 177.733 79.2586 177.445 78.992 177.072C78.736 176.688 78.608 176.224 78.608 175.68C78.608 175.136 78.736 174.683 78.992 174.32C79.2586 173.947 79.6213 173.669 80.08 173.488C80.5493 173.296 81.0826 173.2 81.68 173.2H83.856V172.752C83.856 172.379 83.7386 172.075 83.504 171.84C83.2693 171.595 82.896 171.472 82.384 171.472C81.8826 171.472 81.5093 171.589 81.264 171.824C81.0186 172.048 80.8586 172.341 80.784 172.704L78.928 172.08C79.056 171.675 79.2586 171.307 79.536 170.976C79.824 170.635 80.2026 170.363 80.672 170.16C81.152 169.947 81.7333 169.84 82.416 169.84C83.4613 169.84 84.288 170.101 84.896 170.624C85.504 171.147 85.808 171.904 85.808 172.896V175.856C85.808 176.176 85.9573 176.336 86.256 176.336H86.896V178H85.552C85.1573 178 84.832 177.904 84.576 177.712C84.32 177.52 84.192 177.264 84.192 176.944V176.928H83.888C83.8453 177.056 83.7493 177.227 83.6 177.44C83.4506 177.643 83.216 177.824 82.896 177.984C82.576 178.144 82.1386 178.224 81.584 178.224ZM81.936 176.592C82.5013 176.592 82.96 176.437 83.312 176.128C83.6746 175.808 83.856 175.387 83.856 174.864V174.704H81.824C81.4506 174.704 81.1573 174.784 80.944 174.944C80.7306 175.104 80.624 175.328 80.624 175.616C80.624 175.904 80.736 176.139 80.96 176.32C81.184 176.501 81.5093 176.592 81.936 176.592Z" fill="#151B23"/>
<path d="M88.37 181.2V170.064H90.354V171.024H90.642C90.8233 170.715 91.106 170.443 91.49 170.208C91.874 169.963 92.4233 169.84 93.138 169.84C93.778 169.84 94.37 170 94.914 170.32C95.458 170.629 95.8953 171.088 96.226 171.696C96.5566 172.304 96.722 173.04 96.722 173.904V174.16C96.722 175.024 96.5566 175.76 96.226 176.368C95.8953 176.976 95.458 177.44 94.914 177.76C94.37 178.069 93.778 178.224 93.138 178.224C92.658 178.224 92.2526 178.165 91.922 178.048C91.602 177.941 91.3406 177.803 91.138 177.632C90.946 177.451 90.7913 177.269 90.674 177.088H90.386V181.2H88.37ZM92.53 176.464C93.1593 176.464 93.6766 176.267 94.082 175.872C94.498 175.467 94.706 174.88 94.706 174.112V173.952C94.706 173.184 94.498 172.603 94.082 172.208C93.666 171.803 93.1486 171.6 92.53 171.6C91.9113 171.6 91.394 171.803 90.978 172.208C90.562 172.603 90.354 173.184 90.354 173.952V174.112C90.354 174.88 90.562 175.467 90.978 175.872C91.394 176.267 91.9113 176.464 92.53 176.464Z" fill="#151B23"/>
<path d="M98.5731 181.2V170.064H100.557V171.024H100.845C101.026 170.715 101.309 170.443 101.693 170.208C102.077 169.963 102.626 169.84 103.341 169.84C103.981 169.84 104.573 170 105.117 170.32C105.661 170.629 106.098 171.088 106.429 171.696C106.76 172.304 106.925 173.04 106.925 173.904V174.16C106.925 175.024 106.76 175.76 106.429 176.368C106.098 176.976 105.661 177.44 105.117 177.76C104.573 178.069 103.981 178.224 103.341 178.224C102.861 178.224 102.456 178.165 102.125 178.048C101.805 177.941 101.544 177.803 101.341 177.632C101.149 177.451 100.994 177.269 100.877 177.088H100.589V181.2H98.5731ZM102.733 176.464C103.362 176.464 103.88 176.267 104.285 175.872C104.701 175.467 104.909 174.88 104.909 174.112V173.952C104.909 173.184 104.701 172.603 104.285 172.208C103.869 171.803 103.352 171.6 102.733 171.6C102.114 171.6 101.597 171.803 101.181 172.208C100.765 172.603 100.557 173.184 100.557 173.952V174.112C100.557 174.88 100.765 175.467 101.181 175.872C101.597 176.267 102.114 176.464 102.733 176.464Z" fill="#151B23"/>
<path fill-rule="evenodd" clip-rule="evenodd" d="M167.673 26.673C145.679 4.73029 110.019 4.73029 88.0245 26.673C68.6543 45.9977 66.3433 75.8966 81.0912 97.7445C77.001 97.1638 72.8729 96.9124 68.7499 96.9903C55.7355 71.978 59.7468 40.4368 80.7837 19.4492C106.777 -6.48307 148.92 -6.48307 174.914 19.4492C195.958 40.4443 199.965 72.0006 186.933 97.0171C182.621 97.1567 178.319 97.6567 174.075 98.517C189.406 76.6059 187.272 46.2264 167.673 26.673Z" fill="#34C186"/>
<path fill-rule="evenodd" clip-rule="evenodd" d="M158.532 220.576C143.216 210.525 133.12 193.234 133.12 173.596C133.12 152.242 123.014 133.247 107.33 121.104C103.782 122.487 100.347 124.241 97.084 126.368C112.615 136.38 122.88 153.795 122.88 173.596C122.88 194.788 132.831 213.656 148.311 225.809C151.849 224.435 155.277 222.691 158.532 220.576Z" fill="#34C186"/>
<path fill-rule="evenodd" clip-rule="evenodd" d="M229.264 133.865C213.041 117.68 189.382 113.433 169.257 121.125L164.392 117.932C162.567 116.734 160.696 115.634 158.786 114.634C183.856 101.653 215.469 105.655 236.505 126.642C262.498 152.574 262.498 194.619 236.505 220.551C215.388 241.618 183.613 245.57 158.497 232.408C160.412 231.417 162.289 230.327 164.12 229.138L169 225.968C189.18 233.795 212.972 229.581 229.264 213.327C251.258 191.384 251.258 155.808 229.264 133.865Z" fill="#151B22"/>
<path fill-rule="evenodd" clip-rule="evenodd" d="M139.099 148.373C143.599 139.45 150.414 131.886 158.763 126.466C155.517 124.335 152.098 122.574 148.568 121.183C142.901 125.588 137.966 130.889 133.977 136.872C135.985 140.534 137.703 144.378 139.099 148.373ZM116.901 198.818C112.415 207.713 105.628 215.258 97.3159 220.674C100.589 222.785 104.033 224.522 107.588 225.887C113.189 221.506 118.071 216.248 122.023 210.319C120.015 206.657 118.297 202.813 116.901 198.818Z" fill="#34C186"/>
<path d="M86.5301 121.045C66.4512 113.463 42.902 117.737 26.7357 133.866C4.74141 155.808 4.74141 191.384 26.7357 213.327C42.9715 229.525 66.6537 233.766 86.7887 226.05L91.758 229.254C93.5804 230.429 95.4479 231.507 97.3528 232.487C72.2604 245.555 40.5695 241.576 19.4949 220.551C-6.49831 194.619 -6.49831 152.574 19.4949 126.642C40.4882 105.698 72.0161 101.669 97.0621 114.556C95.1624 115.545 93.3004 116.631 91.4838 117.815L86.5301 121.045Z" fill="#151B22"/>
</g>
<defs>
<clipPath id="clip0_205_12297">
<rect width="256" height="240" fill="white"/>
</clipPath>
</defs>
</svg>
