<svg width="192" height="192" viewBox="0 0 192 192" fill="none" xmlns="http://www.w3.org/2000/svg">
<path fill-rule="evenodd" clip-rule="evenodd" d="M96 9.7218L142 34.8127V82.8127L186 106.813V157.187L140 182.278L96 158.278L52 182.278L6 157.187V106.813L50 82.8127V34.8127L96 9.7218ZM52 86.2782L10 109.187V154.813L52 177.722L94 154.813V109.187L52 86.2782ZM98 109.187V154.813L140 177.722L182 154.813V109.187L140 86.2782L98 109.187ZM138 82.8127V37.1872L96 14.2782L54 37.1872V82.8127L96 105.722L138 82.8127ZM72.2442 47.0423C72.7731 46.0726 73.988 45.7153 74.9577 46.2442L96 57.7218L117.042 46.2442C118.012 45.7153 119.227 46.0726 119.756 47.0423C120.285 48.012 119.927 49.2268 118.958 49.7558L98 61.1872V84C98 85.1045 97.1046 86 96 86C94.8954 86 94 85.1045 94 84V61.1872L73.0423 49.7558C72.0726 49.2268 71.7153 48.012 72.2442 47.0423ZM28.2442 119.042C28.7731 118.073 29.988 117.715 30.9577 118.244L52 129.722L73.0423 118.244C74.012 117.715 75.2269 118.073 75.7558 119.042C76.2847 120.012 75.9274 121.227 74.9577 121.756L54 133.187V156C54 157.105 53.1046 158 52 158C50.8954 158 50 157.105 50 156V133.187L29.0423 121.756C28.0726 121.227 27.7153 120.012 28.2442 119.042ZM116.244 119.042C116.773 118.073 117.988 117.715 118.958 118.244L140 129.722L161.042 118.244C162.012 117.715 163.227 118.073 163.756 119.042C164.285 120.012 163.927 121.227 162.958 121.756L142 133.187V156C142 157.105 141.105 158 140 158C138.895 158 138 157.105 138 156V133.187L117.042 121.756C116.073 121.227 115.715 120.012 116.244 119.042Z" fill="#34C186" stroke="#34C186" stroke-width="2" stroke-linecap="round"/>
</svg>
