<svg width="192" height="192" viewBox="0 0 192 192" fill="none" xmlns="http://www.w3.org/2000/svg">
<path fill-rule="evenodd" clip-rule="evenodd" d="M72 14C73.1046 14 74 14.8954 74 16V46H118V16C118 14.8954 118.895 14 120 14C121.105 14 122 14.8954 122 16V46H132C135.314 46 138 48.6863 138 52V116C138 123.732 131.732 130 124 130H118V148C118 151.314 115.314 154 112 154H98V176C98 177.105 97.1046 178 96 178C94.8954 178 94 177.105 94 176V154H80C76.6863 154 74 151.314 74 148V130H68C60.268 130 54 123.732 54 116V52C54 48.6863 56.6863 46 60 46H70V16C70 14.8954 70.8954 14 72 14ZM78 130V148C78 149.105 78.8954 150 80 150H112C113.105 150 114 149.105 114 148V130H78ZM60 50C58.8954 50 58 50.8954 58 52V116C58 121.523 62.4772 126 68 126H124C129.523 126 134 121.523 134 116V52C134 50.8954 133.105 50 132 50H60ZM96.8944 62.2111C97.8824 62.7051 98.2828 63.9065 97.7889 64.8944L87.2361 86H111.236L97.7889 112.894C97.2949 113.882 96.0935 114.283 95.1056 113.789C94.1176 113.295 93.7172 112.094 94.2111 111.106L104.764 90H80.7639L94.2111 63.1056C94.7051 62.1176 95.9065 61.7172 96.8944 62.2111Z" fill="#34C186" stroke="#34C186" stroke-width="2"/>
</svg>
