<svg width="48" height="48" viewBox="0 0 48 48" fill="none" xmlns="http://www.w3.org/2000/svg">
<g clip-path="url(#clip0_204_12221)">
<path d="M32.75 3C35.9583 3 38.6927 3.5651 40.9531 4.69531C42.1562 5.27865 43.1042 6.00781 43.7969 6.88281C44.599 7.83073 45 8.86979 45 10V31C45 32.1302 44.599 33.1693 43.7969 34.1172C43.1042 34.9922 42.1562 35.7214 40.9531 36.3047C38.6927 37.4349 35.9583 38 32.75 38C31.0365 38 29.2865 37.763 27.5 37.2891V38C27.5 39.1302 27.099 40.1693 26.2969 41.1172C25.6042 41.9922 24.6562 42.7214 23.4531 43.3047C21.1927 44.4349 18.4583 45 15.25 45C12.0417 45 9.30729 44.4349 7.04688 43.3047C5.84375 42.7214 4.89583 41.9922 4.20312 41.1172C3.40104 40.1693 3 39.1302 3 38V24C3 22.8698 3.40104 21.8307 4.20312 20.8828C4.89583 20.0078 5.84375 19.2786 7.04688 18.6953C9.30729 17.5651 12.0417 17 15.25 17C17.1458 17 18.9323 17.2188 20.6094 17.6562L20.5547 17.4375C20.5182 17.2552 20.5 17.1094 20.5 17V10C20.5 8.86979 20.901 7.83073 21.7031 6.88281C22.3958 6.00781 23.3438 5.27865 24.5469 4.69531C26.8073 3.5651 29.5417 3 32.75 3ZM32.75 6.5C31.474 6.5 30.2344 6.6276 29.0312 6.88281C27.9375 7.13802 26.9714 7.46615 26.1328 7.86719C25.4036 8.23177 24.8568 8.61458 24.4922 9.01562C24.1641 9.38021 24 9.70833 24 10C24 10.2917 24.1641 10.6198 24.4922 10.9844C24.8568 11.3854 25.4036 11.7682 26.1328 12.1328C26.9714 12.5339 27.9375 12.862 29.0312 13.1172C30.2344 13.3724 31.474 13.5 32.75 13.5C34.026 13.5 35.2656 13.3724 36.4688 13.1172C37.5625 12.862 38.5286 12.5339 39.3672 12.1328C40.0964 11.7682 40.6432 11.3854 41.0078 10.9844C41.3359 10.6198 41.5 10.2917 41.5 10C41.5 9.70833 41.3359 9.38021 41.0078 9.01562C40.6432 8.61458 40.0964 8.23177 39.3672 7.86719C38.5286 7.46615 37.5625 7.13802 36.4688 6.88281C35.2656 6.6276 34.026 6.5 32.75 6.5ZM24 14.9766V17C24 17.2917 24.1641 17.6198 24.4922 17.9844C24.8568 18.3854 25.4036 18.7682 26.1328 19.1328C26.9714 19.5339 27.9375 19.862 29.0312 20.1172C30.2344 20.3724 31.474 20.5 32.75 20.5C34.026 20.5 35.2656 20.3724 36.4688 20.1172C37.5625 19.862 38.5286 19.5339 39.3672 19.1328C40.0964 18.7682 40.6432 18.3854 41.0078 17.9844C41.3359 17.6198 41.5 17.2917 41.5 17V14.9766L40.9531 15.3047C38.6927 16.4349 35.9583 17 32.75 17C29.5417 17 26.8073 16.4349 24.5469 15.3047L24.2188 15.1406C24.1094 15.0677 24.0365 15.013 24 14.9766ZM15.25 20.5C13.974 20.5 12.7344 20.6276 11.5312 20.8828C10.4375 21.138 9.47135 21.4661 8.63281 21.8672C7.90365 22.2318 7.35677 22.6146 6.99219 23.0156C6.66406 23.3802 6.5 23.7083 6.5 24C6.5 24.2917 6.66406 24.6198 6.99219 24.9844C7.35677 25.3854 7.90365 25.7682 8.63281 26.1328C9.47135 26.5339 10.4375 26.862 11.5312 27.1172C12.7344 27.3724 13.974 27.5 15.25 27.5C16.526 27.5 17.7656 27.3724 18.9688 27.1172C20.0625 26.862 21.0286 26.5339 21.8672 26.1328C22.5964 25.7682 23.1432 25.3854 23.5078 24.9844C23.8359 24.6198 24 24.2917 24 24C24 23.7083 23.8359 23.3802 23.5078 23.0156C23.1432 22.6146 22.5964 22.2318 21.8672 21.8672C21.0286 21.4661 20.0625 21.138 18.9688 20.8828C17.7656 20.6276 16.526 20.5 15.25 20.5ZM41.5 21.9766L40.9531 22.3047C38.6927 23.4349 35.9583 24 32.75 24C30.8542 24 29.0677 23.7812 27.3906 23.3438L27.4453 23.5625C27.4818 23.7448 27.5 23.8906 27.5 24V26.6797C29.1406 27.2266 30.8906 27.5 32.75 27.5C34.026 27.5 35.2656 27.3724 36.4688 27.1172C37.5625 26.862 38.5286 26.5339 39.3672 26.1328C40.0964 25.7682 40.6432 25.3854 41.0078 24.9844C41.3359 24.6198 41.5 24.2917 41.5 24V21.9766ZM6.5 28.9766V31C6.5 31.2917 6.66406 31.6198 6.99219 31.9844C7.35677 32.3854 7.90365 32.7682 8.63281 33.1328C9.47135 33.5339 10.4375 33.862 11.5312 34.1172C12.7344 34.3724 13.974 34.5 15.25 34.5C16.526 34.5 17.7656 34.3724 18.9688 34.1172C20.0625 33.862 21.0286 33.5339 21.8672 33.1328C22.5964 32.7682 23.1432 32.3854 23.5078 31.9844C23.8359 31.6198 24 31.2917 24 31V28.9766L23.4531 29.3047C21.1927 30.4349 18.4583 31 15.25 31C12.0417 31 9.30729 30.4349 7.04688 29.3047L6.71875 29.1406C6.60938 29.0677 6.53646 29.013 6.5 28.9766ZM41.5 28.9766L40.9531 29.3047C38.6927 30.4349 35.9583 31 32.75 31C30.8906 31 29.1406 30.7812 27.5 30.3438V33.7344C29.0312 34.2448 30.7812 34.5 32.75 34.5C34.026 34.5 35.2656 34.3724 36.4688 34.1172C37.5625 33.862 38.5286 33.5339 39.3672 33.1328C40.0964 32.7682 40.6432 32.3854 41.0078 31.9844C41.3359 31.6198 41.5 31.2917 41.5 31V28.9766ZM6.5 35.9766V38C6.5 38.2917 6.66406 38.6198 6.99219 38.9844C7.35677 39.3854 7.90365 39.7682 8.63281 40.1328C9.47135 40.5339 10.4375 40.862 11.5312 41.1172C12.7344 41.3724 13.974 41.5 15.25 41.5C16.526 41.5 17.7656 41.3724 18.9688 41.1172C20.0625 40.862 21.0286 40.5339 21.8672 40.1328C22.5964 39.7682 23.1432 39.3854 23.5078 38.9844C23.8359 38.6198 24 38.2917 24 38V35.9766L23.4531 36.3047C21.1927 37.4349 18.4583 38 15.25 38C12.0417 38 9.30729 37.4349 7.04688 36.3047L6.71875 36.1406C6.60938 36.0677 6.53646 36.013 6.5 35.9766Z" fill="#34C186"/>
</g>
<defs>
<clipPath id="clip0_204_12221">
<rect width="48" height="48" fill="white"/>
</clipPath>
</defs>
</svg>
