<svg width="192" height="192" viewBox="0 0 192 192" fill="none" xmlns="http://www.w3.org/2000/svg">
<path fill-rule="evenodd" clip-rule="evenodd" d="M16 42C16 36.4772 20.4772 32 26 32H166C171.523 32 176 36.4772 176 42V128C176 133.523 171.523 138 166 138H143C141.895 138 141 137.105 141 136C141 134.895 141.895 134 143 134H166C169.314 134 172 131.314 172 128V42C172 38.6863 169.314 36 166 36H26C22.6863 36 20 38.6863 20 42V128C20 131.314 22.6863 134 26 134H49C50.1046 134 51 134.895 51 136C51 137.105 50.1046 138 49 138H26C20.4772 138 16 133.523 16 128V42ZM82 54C83.1046 54 84 54.8954 84 56V68C84 69.1046 83.1046 70 82 70C80.8954 70 80 69.1046 80 68V56C80 54.8954 80.8954 54 82 54ZM58.5858 63.5858C59.3668 62.8047 60.6332 62.8047 61.4142 63.5858L69.8995 72.0711C70.6805 72.8521 70.6805 74.1184 69.8995 74.8995C69.1184 75.6805 67.8521 75.6805 67.0711 74.8995L58.5858 66.4142C57.8047 65.6332 57.8047 64.3668 58.5858 63.5858ZM104.9 63.5858C105.681 64.3668 105.681 65.6332 104.9 66.4142L96.4143 74.8995C95.6332 75.6805 94.3669 75.6805 93.5859 74.8995C92.8048 74.1184 92.8048 72.8521 93.5859 72.0711L102.071 63.5858C102.852 62.8047 104.119 62.8047 104.9 63.5858ZM75.5134 82.912C77.0699 81.1825 79.516 79.9999 83 79.9999C86.0518 79.9999 88.1523 81.3163 89.4231 83.0813C90.6204 84.7443 91 86.6798 91 87.9999V103.8C92.3924 103.173 94.1301 102.803 96.199 103.01C99.0465 103.295 100.802 105.062 101.771 106.908C102.14 107.612 102.41 108.348 102.6 109.062C104.263 108.483 106.463 108 109 108C110.418 108 111.641 108.425 112.614 109.208C113.559 109.969 114.142 110.966 114.5 111.929C114.813 112.772 114.981 113.664 115.053 114.513C116.002 114.35 117.039 114.216 118.067 114.154C119.118 114.09 120.223 114.098 121.246 114.254C122.236 114.404 123.355 114.722 124.249 115.438C126.062 116.888 127.821 120.222 128.481 124.975C129.156 129.833 128.727 136.401 125.891 144.65C123.804 150.721 121.783 156.2 120.099 160.736C119.955 161.125 119.813 161.507 119.674 161.881C118.183 165.894 117.014 169.042 116.342 171.135C115.813 172.784 114.28 174 112.455 174H82.7809C80.7321 174 79.0698 172.464 78.7911 170.512C77.4305 160.98 74.4899 155.873 71.4638 151.569C70.9554 150.846 70.433 150.132 69.9071 149.414C67.2891 145.839 64.5825 142.142 63.0688 136.52C62.2992 133.662 62.2659 131.201 62.8865 129.119C63.5137 127.015 64.7626 125.458 66.2727 124.358C68.465 122.762 71.1884 122.133 73.5 121.996V87.9999C73.5 86.5746 74.0146 84.5773 75.5134 82.912ZM73.5 126.004C71.8003 126.136 69.9726 126.612 68.6273 127.592C67.7457 128.234 67.0696 129.089 66.7197 130.262C66.3633 131.458 66.3008 133.138 66.9312 135.48C68.2363 140.327 70.4577 143.373 73.0396 146.913C73.5905 147.668 74.1577 148.446 74.736 149.268C78.0377 153.965 81.282 159.655 82.751 169.946C82.754 169.968 82.7639 169.984 82.7759 169.995C82.7789 169.998 82.7812 169.999 82.7827 170H112.455C112.456 170 112.465 170.001 112.482 169.988C112.502 169.973 112.522 169.947 112.533 169.912C113.235 167.728 114.437 164.492 115.91 160.527C116.054 160.14 116.2 159.745 116.349 159.344C118.031 154.813 120.038 149.372 122.109 143.35C124.773 135.599 125.094 129.667 124.519 125.525C123.929 121.278 122.438 119.112 121.751 118.562C121.645 118.478 121.327 118.312 120.645 118.209C119.996 118.11 119.195 118.093 118.308 118.146C117.172 118.215 115.999 118.392 115 118.591V126C115 127.105 114.105 128 113 128C111.895 128 111 127.105 111 126V116.858L111.02 116.717C111.159 115.745 111.136 114.36 110.75 113.321C110.566 112.826 110.337 112.511 110.105 112.323C109.9 112.159 109.582 112 109 112C106.325 112 104.195 112.67 103 113.199V122C103 123.105 102.105 124 101 124C99.8954 124 99 123.105 99 122V112C99 111.154 98.7929 109.841 98.229 108.767C97.6977 107.754 96.9535 107.105 95.801 106.99C93.1971 106.73 91.6333 107.905 91 108.634V122C91 123.105 90.1046 124 89 124C87.8954 124 87 123.105 87 122V87.9999C87 87.3199 86.7796 86.2555 86.1769 85.4185C85.6477 84.6835 84.7482 83.9999 83 83.9999C80.484 83.9999 79.1801 84.8172 78.4866 85.5878C77.7354 86.4224 77.5 87.4252 77.5 87.9999V136C77.5 137.104 76.6046 138 75.5 138C74.3954 138 73.5 137.104 73.5 136V126.004ZM49 86C49 84.8954 49.8954 84 51 84H63C64.1046 84 65 84.8954 65 86C65 87.1046 64.1046 88 63 88H51C49.8954 88 49 87.1046 49 86ZM99 86C99 84.8954 99.8954 84 101 84H113C114.105 84 115 84.8954 115 86C115 87.1046 114.105 88 113 88H101C99.8954 88 99 87.1046 99 86Z" fill="#34C186" stroke="#34C186" stroke-width="2" stroke-linecap="round"/>
</svg>
