<svg width="48" height="48" viewBox="0 0 48 48" fill="none" xmlns="http://www.w3.org/2000/svg">
<g clip-path="url(#clip0_204_12217)">
<path d="M24 3C26.224 3 28.2656 3.54688 30.125 4.64062C32.0208 5.73438 33.5156 7.22917 34.6094 9.125C35.7031 10.9844 36.25 13.026 36.25 15.25C36.25 17.2917 35.776 19.2057 34.8281 20.9922C33.8802 22.7422 32.5859 24.1823 30.9453 25.3125C33.3516 26.2604 35.4844 27.6276 37.3438 29.4141C39.2031 31.2005 40.6432 33.2604 41.6641 35.5938C42.7214 38.0365 43.25 40.5885 43.25 43.25H39.75C39.75 40.7344 39.1849 38.3646 38.0547 36.1406C36.9245 33.9531 35.375 32.1302 33.4062 30.6719C31.4375 29.1771 29.25 28.2109 26.8438 27.7734L25.75 31H22.25L21.1562 27.7734C18.75 28.2109 16.5625 29.1771 14.5938 30.6719C12.625 32.1302 11.0755 33.9531 9.94531 36.1406C8.8151 38.3646 8.25 40.7344 8.25 43.25H4.75C4.75 40.5885 5.27865 38.0365 6.33594 35.5938C7.35677 33.2604 8.79688 31.2005 10.6562 29.4141C12.5156 27.6276 14.6484 26.2604 17.0547 25.3125C15.4141 24.1823 14.1198 22.7422 13.1719 20.9922C12.224 19.2057 11.75 17.2917 11.75 15.25C11.75 13.026 12.2969 10.9844 13.3906 9.125C14.4844 7.22917 15.9609 5.73438 17.8203 4.64062C19.7161 3.54688 21.776 3 24 3ZM24 6.5C22.3958 6.5 20.9193 6.90104 19.5703 7.70312C18.2578 8.46875 17.2005 9.52604 16.3984 10.875C15.6328 12.1875 15.25 13.6458 15.25 15.25C15.25 16.8542 15.6328 18.3307 16.3984 19.6797C17.2005 20.9922 18.2578 22.0495 19.5703 22.8516C20.9193 23.6172 22.3958 24 24 24C25.6042 24 27.0625 23.6172 28.375 22.8516C29.724 22.0495 30.7812 20.9922 31.5469 19.6797C32.349 18.3307 32.75 16.8542 32.75 15.25C32.75 13.6458 32.349 12.1875 31.5469 10.875C30.7812 9.52604 29.724 8.46875 28.375 7.70312C27.0625 6.90104 25.6042 6.5 24 6.5ZM22.25 32.75H25.75L27.5 43.25H20.5L22.25 32.75Z" fill="#34C186"/>
</g>
<defs>
<clipPath id="clip0_204_12217">
<rect width="48" height="48" fill="white"/>
</clipPath>
</defs>
</svg>
