<svg width="192" height="192" viewBox="0 0 192 192" fill="none" xmlns="http://www.w3.org/2000/svg">
<path fill-rule="evenodd" clip-rule="evenodd" d="M145.414 28.2426C144.633 27.4616 143.367 27.4616 142.586 28.2426L124.243 46.5858C123.462 47.3669 123.462 48.6332 124.243 49.4143L142.586 67.7574C143.367 68.5385 144.633 68.5385 145.414 67.7574L163.757 49.4143C164.538 48.6332 164.538 47.3669 163.757 46.5858L145.414 28.2426ZM139.757 25.4142C142.101 23.0711 145.9 23.0711 148.243 25.4142L166.586 43.7574C168.929 46.1005 168.929 49.8995 166.586 52.2427L148.243 70.5859C145.9 72.929 142.101 72.929 139.757 70.5859L121.414 52.2427C119.071 49.8995 119.071 46.1005 121.414 43.7574L139.757 25.4142ZM48 28C36.9543 28 28 36.9543 28 48C28 59.0457 36.9543 68 48 68C59.0457 68 68 59.0457 68 48C68 36.9543 59.0457 28 48 28ZM24 48C24 34.7452 34.7452 24 48 24C61.2548 24 72 34.7452 72 48C72 61.2549 61.2548 72 48 72C34.7452 72 24 61.2549 24 48ZM86 48C86 46.8955 86.8954 46 88 46H104C105.105 46 106 46.8955 106 48C106 49.1046 105.105 50 104 50H88C86.8954 50 86 49.1046 86 48ZM48 86C49.1046 86 50 86.8955 50 88V104C50 105.105 49.1046 106 48 106C46.8954 106 46 105.105 46 104V88C46 86.8955 46.8954 86 48 86ZM144 86C145.105 86 146 86.8955 146 88V104C146 105.105 145.105 106 144 106C142.895 106 142 105.105 142 104V88C142 86.8955 142.895 86 144 86ZM24 126C24 122.686 26.6863 120 30 120H66C69.3137 120 72 122.686 72 126V162C72 165.314 69.3137 168 66 168H30C26.6863 168 24 165.314 24 162V126ZM30 124C28.8954 124 28 124.895 28 126V162C28 163.105 28.8954 164 30 164H66C67.1046 164 68 163.105 68 162V126C68 124.895 67.1046 124 66 124H30ZM144 124C132.954 124 124 132.954 124 144C124 155.046 132.954 164 144 164C155.046 164 164 155.046 164 144C164 132.954 155.046 124 144 124ZM120 144C120 130.745 130.745 120 144 120C157.255 120 168 130.745 168 144C168 157.255 157.255 168 144 168C130.745 168 120 157.255 120 144Z" fill="#34C186" stroke="#34C186" stroke-width="2" stroke-linecap="round"/>
</svg>
