<svg width="48" height="48" viewBox="0 0 48 48" fill="none" xmlns="http://www.w3.org/2000/svg">
<g clip-path="url(#clip0_204_12216)">
<path d="M18.75 3C19.7708 3 20.737 3.21875 21.6484 3.65625C22.5599 4.09375 23.3438 4.69531 24 5.46094C24.6562 4.69531 25.4401 4.09375 26.3516 3.65625C27.263 3.21875 28.2292 3 29.25 3C30.8906 3 32.3307 3.52865 33.5703 4.58594C34.8464 5.64323 35.6484 6.97396 35.9766 8.57812C38.0547 8.94271 39.7865 9.90885 41.1719 11.4766C42.5573 13.0443 43.25 14.8854 43.25 17C43.25 17.3281 43.2135 17.7292 43.1406 18.2031C44.3802 20.026 45 21.9583 45 24C45 25.5312 44.6354 26.9896 43.9062 28.375C43.25 29.651 42.3203 30.7995 41.1172 31.8203L41.2266 32.3125C41.4089 32.8594 41.5 33.2969 41.5 33.625L41.4453 33.9531L41.5 34.2812H41.4453C41.3359 35.5938 40.9167 36.8151 40.1875 37.9453C39.4583 39.0391 38.5104 39.9141 37.3438 40.5703C36.2135 41.1901 34.974 41.5 33.625 41.5H33.5156C32.9688 42.5573 32.276 43.3958 31.4375 44.0156C30.526 44.6719 29.5052 45 28.375 45C27.5365 45 26.7344 44.8359 25.9688 44.5078C25.2396 44.1797 24.5833 43.724 24 43.1406C23.4167 43.724 22.7422 44.1797 21.9766 44.5078C21.2474 44.8359 20.4635 45 19.625 45C18.4948 45 17.474 44.6719 16.5625 44.0156C15.724 43.3958 15.0312 42.5573 14.4844 41.5H14.375C12.9531 41.5 11.6406 41.1536 10.4375 40.4609C9.23438 39.7318 8.26823 38.7656 7.53906 37.5625C6.84635 36.3594 6.5 35.0469 6.5 33.625C6.5 33.0781 6.59115 32.4401 6.77344 31.7109C5.60677 30.6901 4.69531 29.5599 4.03906 28.3203C3.34635 26.9349 3 25.4948 3 24C3 21.9583 3.61979 20.026 4.85938 18.2031C4.78646 17.7292 4.75 17.3281 4.75 17C4.75 14.8854 5.44271 13.0443 6.82812 11.4766C8.21354 9.90885 9.94531 8.94271 12.0234 8.57812C12.3516 6.97396 13.1354 5.64323 14.375 4.58594C15.651 3.52865 17.1094 3 18.75 3ZM18.75 6.5C17.7656 6.5 16.9271 6.84635 16.2344 7.53906C15.5781 8.19531 15.25 9.01562 15.25 10V11.75H13.5C12.0417 11.75 10.8021 12.2604 9.78125 13.2812C8.76042 14.3021 8.25 15.5417 8.25 17C8.25 17.2917 8.30469 17.6745 8.41406 18.1484L8.57812 19.0234L8.03125 19.6797C7.01042 20.9557 6.5 22.3958 6.5 24C6.5 25.7865 7.08333 27.3359 8.25 28.6484C9.41667 27.1901 10.9297 26.2786 12.7891 25.9141L13.5 29.3594C12.7708 29.5052 12.1146 29.8151 11.5312 30.2891C10.9844 30.7266 10.5833 31.2917 10.3281 31.9844L10.2734 32.0938C10.0911 32.5677 10 33.0781 10 33.625C10 34.8281 10.4193 35.8672 11.2578 36.7422C12.1328 37.5807 13.1719 38 14.375 38C14.5938 38 14.8125 37.9818 15.0312 37.9453L16.7266 37.6719L17.0547 39.3672C17.1641 39.987 17.4557 40.4974 17.9297 40.8984C18.4036 41.2995 18.9688 41.5 19.625 41.5C20.3542 41.5 20.974 41.2448 21.4844 40.7344C21.9948 40.224 22.25 39.6042 22.25 38.875V20.4453C20.6823 21.6484 18.9323 22.25 17 22.25V18.75C18.4583 18.75 19.6979 18.2396 20.7188 17.2188C21.7396 16.1979 22.25 14.9583 22.25 13.5V10C22.25 9.01562 21.9036 8.19531 21.2109 7.53906C20.5547 6.84635 19.7344 6.5 18.75 6.5ZM29.25 6.5C28.2656 6.5 27.4271 6.84635 26.7344 7.53906C26.0781 8.19531 25.75 9.01562 25.75 10V13.5C25.75 14.9583 26.2604 16.1979 27.2812 17.2188C28.3021 18.2396 29.5417 18.75 31 18.75V22.25C29.0677 22.25 27.3177 21.6484 25.75 20.4453V38.875C25.75 39.6042 26.0052 40.224 26.5156 40.7344C27.026 41.2448 27.6458 41.5 28.375 41.5C29.0312 41.5 29.5964 41.2995 30.0703 40.8984C30.5443 40.4974 30.8359 39.987 30.9453 39.3672L31.2734 37.6719L32.9688 37.9453C33.1875 37.9818 33.4062 38 33.625 38C34.7917 38 35.776 37.6172 36.5781 36.8516C37.4167 36.0495 37.8724 35.0651 37.9453 33.8984C37.8359 33.0599 37.4714 32.3672 36.8516 31.8203C36.2682 31.2734 35.5755 31 34.7734 31C33.9714 31 33.2604 31.2552 32.6406 31.7656L30.3984 29.0859C31.638 28.0286 33.0781 27.5 34.7188 27.5C36.3594 27.5 37.8359 28.0833 39.1484 29.25C39.8776 28.5938 40.4427 27.8099 40.8438 26.8984C41.2812 25.987 41.5 25.0208 41.5 24C41.5 22.3958 40.9896 20.9557 39.9688 19.6797L39.4219 19.0234L39.5859 18.1484C39.6953 17.6745 39.75 17.2917 39.75 17C39.75 15.5417 39.2396 14.3021 38.2188 13.2812C37.1979 12.2604 35.9583 11.75 34.5 11.75H32.75V10C32.75 9.01562 32.4036 8.19531 31.7109 7.53906C31.0547 6.84635 30.2344 6.5 29.25 6.5Z" fill="#34C186"/>
</g>
<defs>
<clipPath id="clip0_204_12216">
<rect width="48" height="48" fill="white"/>
</clipPath>
</defs>
</svg>
