<svg width="48" height="48" viewBox="0 0 48 48" fill="none" xmlns="http://www.w3.org/2000/svg">
<g clip-path="url(#clip0_204_12219)">
<path d="M24 1.25C26.1875 1.25 28.2109 1.8151 30.0703 2.94531C31.9661 4.03906 33.4609 5.53385 34.5547 7.42969C35.6849 9.28906 36.25 11.3125 36.25 13.5V18.75H41.5V46.75H6.5V18.75H11.75V13.5C11.75 11.3125 12.2969 9.28906 13.3906 7.42969C14.5208 5.53385 16.0156 4.03906 17.875 2.94531C19.7708 1.8151 21.8125 1.25 24 1.25ZM24 4.75C22.4323 4.75 20.974 5.15104 19.625 5.95312C18.276 6.71875 17.2005 7.77604 16.3984 9.125C15.6328 10.474 15.25 11.9323 15.25 13.5V18.75H32.75V13.5C32.75 11.9323 32.349 10.474 31.5469 9.125C30.7812 7.77604 29.724 6.71875 28.375 5.95312C27.026 5.15104 25.5677 4.75 24 4.75ZM10 22.25V43.25H38V22.25H10Z" fill="#34C186"/>
</g>
<defs>
<clipPath id="clip0_204_12219">
<rect width="48" height="48" fill="white"/>
</clipPath>
</defs>
</svg>
