<svg width="164" height="24" viewBox="0 0 164 24" fill="none" xmlns="http://www.w3.org/2000/svg">
<path fill-rule="evenodd" clip-rule="evenodd" d="M23.1933 11.5966C23.1933 18.0013 18.0013 23.1933 11.5967 23.1933C5.19202 23.1933 2.73701e-05 18.0013 2.849e-05 11.5966C2.96098e-05 5.19199 5.19202 9.07796e-07 11.5967 2.02762e-06C18.0013 3.14744e-06 23.1933 5.19199 23.1933 11.5966ZM20.874 13.1429C20.874 17.4126 17.4126 20.8739 13.1429 20.8739C10 20.8739 7.2952 18.9986 6.08636 16.3059C4.15478 14.9004 2.89919 12.622 2.89919 10.0504C2.89919 5.78066 6.36052 2.31933 10.6303 2.31933C13.7731 2.31933 16.478 4.19467 17.6868 6.88738C19.6184 8.29288 20.874 10.5712 20.874 13.1429Z" fill="#34C186"/>
<path d="M5.41211 13.1429C5.41211 8.8731 8.87344 5.41177 13.1432 5.41177C14.8413 5.41177 16.4116 5.95928 17.6871 6.88739C16.4783 4.19468 13.7734 2.31934 10.6306 2.31934C6.36083 2.31934 2.89951 5.78066 2.8995 10.0504C2.8995 12.622 4.15509 14.9004 6.08667 16.3059C5.65322 15.3404 5.41211 14.2698 5.41211 13.1429Z" fill="#46587E"/>
<path d="M13.1431 5.41174C8.87335 5.41174 5.41202 8.87307 5.41202 13.1428C5.41202 14.2698 5.65313 15.3404 6.08658 16.3059C7.36209 17.234 8.93236 17.7815 10.6305 17.7815C14.9003 17.7815 18.3616 14.3202 18.3616 10.0504C18.3616 8.92348 18.1205 7.85287 17.687 6.88736C16.4115 5.95925 14.8413 5.41174 13.1431 5.41174Z" fill="#7B93C1"/>
<path d="M37.0886 19.7521C35.8705 19.7521 34.7438 19.5541 33.7085 19.1583C32.6883 18.7472 31.7976 18.1762 31.0363 17.4454C30.2903 16.6993 29.7041 15.8314 29.2778 14.8417C28.8514 13.8521 28.6383 12.7634 28.6383 11.5758C28.6383 10.3882 28.8514 9.29956 29.2778 8.30988C29.7041 7.3202 30.2979 6.45995 31.0592 5.72911C31.8205 4.98304 32.7112 4.41208 33.7313 4.01621C34.7667 3.60511 35.8934 3.39956 37.1114 3.39956C38.3447 3.39956 39.479 3.61272 40.5144 4.03905C41.565 4.45014 42.4557 5.06679 43.1865 5.88898L41.702 7.32782C41.093 6.68833 40.4078 6.21633 39.6465 5.91182C38.8852 5.59208 38.0707 5.43221 37.2028 5.43221C36.3045 5.43221 35.467 5.58446 34.6905 5.88898C33.9292 6.19349 33.2669 6.61982 32.7036 7.16795C32.1402 7.71607 31.6987 8.37078 31.3789 9.13207C31.0744 9.87814 30.9221 10.6927 30.9221 11.5758C30.9221 12.4589 31.0744 13.2811 31.3789 14.0424C31.6987 14.7885 32.1402 15.4355 32.7036 15.9837C33.2669 16.5318 33.9292 16.9581 34.6905 17.2626C35.467 17.5672 36.3045 17.7194 37.2028 17.7194C38.0707 17.7194 38.8852 17.5672 39.6465 17.2626C40.4078 16.9429 41.093 16.4557 41.702 15.801L43.1865 17.2398C42.4557 18.062 41.565 18.6863 40.5144 19.1126C39.479 19.5389 38.3371 19.7521 37.0886 19.7521Z" fill="#46587E"/>
<path d="M46.1249 19.5694V2.62305H48.3174V19.5694H46.1249Z" fill="#46587E"/>
<path d="M57.688 19.7064C56.4699 19.7064 55.3889 19.4399 54.4449 18.907C53.5009 18.3741 52.7549 17.6433 52.2067 16.7145C51.6586 15.7705 51.3845 14.7047 51.3845 13.5171C51.3845 12.3143 51.6586 11.2485 52.2067 10.3197C52.7549 9.39091 53.5009 8.66769 54.4449 8.15001C55.3889 7.61711 56.4699 7.35065 57.688 7.35065C58.8908 7.35065 59.9643 7.61711 60.9083 8.15001C61.8675 8.66769 62.6135 9.39091 63.1465 10.3197C63.6946 11.2332 63.9686 12.299 63.9686 13.5171C63.9686 14.7199 63.6946 15.7857 63.1465 16.7145C62.6135 17.6433 61.8675 18.3741 60.9083 18.907C59.9643 19.4399 58.8908 19.7064 57.688 19.7064ZM57.688 17.7879C58.4645 17.7879 59.1573 17.6128 59.7663 17.2626C60.3906 16.9125 60.8778 16.4176 61.228 15.7781C61.5782 15.1234 61.7533 14.3697 61.7533 13.5171C61.7533 12.6492 61.5782 11.9032 61.228 11.2789C60.8778 10.6394 60.3906 10.1446 59.7663 9.79439C59.1573 9.4442 58.4645 9.2691 57.688 9.2691C56.9115 9.2691 56.2187 9.4442 55.6097 9.79439C55.0007 10.1446 54.5134 10.6394 54.148 11.2789C53.7826 11.9032 53.5999 12.6492 53.5999 13.5171C53.5999 14.3697 53.7826 15.1234 54.148 15.7781C54.5134 16.4176 55.0007 16.9125 55.6097 17.2626C56.2187 17.6128 56.9115 17.7879 57.688 17.7879Z" fill="#46587E"/>
<path d="M72.0939 19.7064C71.0585 19.7064 70.145 19.5161 69.3532 19.1354C68.5767 18.7548 67.9677 18.1762 67.5261 17.3997C67.0998 16.6079 66.8866 15.6183 66.8866 14.4306V7.46485H69.0792V14.1794C69.0792 15.367 69.3608 16.2577 69.9242 16.8515C70.5028 17.4454 71.3097 17.7423 72.3451 17.7423C73.1064 17.7423 73.7687 17.59 74.3321 17.2855C74.8954 16.9657 75.3293 16.509 75.6339 15.9152C75.9384 15.3061 76.0906 14.5753 76.0906 13.7226V7.46485H78.2831V19.5694H76.2048V16.3034L76.5474 17.1713C76.1515 17.9783 75.5577 18.6025 74.766 19.0441C73.9742 19.4856 73.0835 19.7064 72.0939 19.7064Z" fill="#46587E"/>
<path d="M87.4588 19.7064C86.2864 19.7064 85.2358 19.4475 84.307 18.9299C83.3935 18.4122 82.6703 17.689 82.1374 16.7602C81.6044 15.8314 81.338 14.7504 81.338 13.5171C81.338 12.2838 81.6044 11.2104 82.1374 10.2968C82.6703 9.36807 83.3935 8.64485 84.307 8.12717C85.2358 7.60949 86.2864 7.35065 87.4588 7.35065C88.4789 7.35065 89.4001 7.57904 90.2222 8.03582C91.0444 8.49259 91.6991 9.17775 92.1864 10.0913C92.6888 11.0048 92.9401 12.1468 92.9401 13.5171C92.9401 14.8874 92.6964 16.0294 92.2092 16.9429C91.7372 17.8564 91.0901 18.5492 90.2679 19.0212C89.4457 19.478 88.5093 19.7064 87.4588 19.7064ZM87.6415 17.7879C88.4028 17.7879 89.0879 17.6128 89.697 17.2626C90.3212 16.9125 90.8084 16.4176 91.1586 15.7781C91.5241 15.1234 91.7068 14.3697 91.7068 13.5171C91.7068 12.6492 91.5241 11.9032 91.1586 11.2789C90.8084 10.6394 90.3212 10.1446 89.697 9.79439C89.0879 9.4442 88.4028 9.2691 87.6415 9.2691C86.865 9.2691 86.1722 9.4442 85.5632 9.79439C84.9541 10.1446 84.4669 10.6394 84.1015 11.2789C83.7361 11.9032 83.5533 12.6492 83.5533 13.5171C83.5533 14.3697 83.7361 15.1234 84.1015 15.7781C84.4669 16.4176 84.9541 16.9125 85.5632 17.2626C86.1722 17.6128 86.865 17.7879 87.6415 17.7879ZM91.7753 19.5694V16.3034L91.9123 13.4943L91.6839 10.6851V2.62305H93.8764V19.5694H91.7753Z" fill="#46587E"/>
<path d="M103.301 19.7064C102.067 19.7064 100.963 19.4399 99.989 18.907C99.0298 18.3741 98.2761 17.6433 97.728 16.7145C97.1798 15.7857 96.9058 14.7199 96.9058 13.5171C96.9058 12.3143 97.1798 11.2485 97.728 10.3197C98.2761 9.39091 99.0298 8.66769 99.989 8.15001C100.963 7.61711 102.067 7.35065 103.301 7.35065C104.397 7.35065 105.371 7.57143 106.224 8.01298C107.092 8.4393 107.762 9.07878 108.234 9.93143L106.567 11.0048C106.171 10.411 105.683 9.9771 105.105 9.70304C104.542 9.41375 103.932 9.2691 103.278 9.2691C102.486 9.2691 101.778 9.4442 101.154 9.79439C100.53 10.1446 100.035 10.6394 99.6692 11.2789C99.3038 11.9032 99.1211 12.6492 99.1211 13.5171C99.1211 14.385 99.3038 15.1386 99.6692 15.7781C100.035 16.4176 100.53 16.9125 101.154 17.2626C101.778 17.6128 102.486 17.7879 103.278 17.7879C103.932 17.7879 104.542 17.6509 105.105 17.3768C105.683 17.0875 106.171 16.646 106.567 16.0522L108.234 17.1028C107.762 17.9402 107.092 18.5873 106.224 19.0441C105.371 19.4856 104.397 19.7064 103.301 19.7064Z" fill="#46587E"/>
<path d="M110.916 19.5694V2.62305H113.109V19.5694H110.916Z" fill="#46587E"/>
<path d="M129.597 7.28207V19.5693H126.194V18.1533C125.311 19.2191 124.032 19.752 122.358 19.752C121.2 19.752 120.15 19.4932 119.206 18.9755C118.277 18.4578 117.546 17.7194 117.013 16.7601C116.48 15.8009 116.214 14.6894 116.214 13.4257C116.214 12.1619 116.48 11.0505 117.013 10.0912C117.546 9.13201 118.277 8.39356 119.206 7.87588C120.15 7.3582 121.2 7.09937 122.358 7.09937C123.926 7.09937 125.151 7.5942 126.035 8.58388V7.28207H129.597ZM122.974 16.8286C123.873 16.8286 124.619 16.5241 125.212 15.9151C125.806 15.2908 126.103 14.461 126.103 13.4257C126.103 12.3903 125.806 11.5681 125.212 10.9591C124.619 10.3348 123.873 10.0227 122.974 10.0227C122.061 10.0227 121.307 10.3348 120.713 10.9591C120.119 11.5681 119.822 12.3903 119.822 13.4257C119.822 14.461 120.119 15.2908 120.713 15.9151C121.307 16.5241 122.061 16.8286 122.974 16.8286Z" fill="#46587E"/>
<path d="M140.159 7.09937C141.301 7.09937 142.336 7.36582 143.265 7.89872C144.209 8.4164 144.947 9.15485 145.48 10.1141C146.013 11.0581 146.279 12.1619 146.279 13.4257C146.279 14.6894 146.013 15.8009 145.48 16.7601C144.947 17.7041 144.209 18.4426 143.265 18.9755C142.336 19.4932 141.301 19.752 140.159 19.752C138.59 19.752 137.357 19.2572 136.459 18.2675V24H132.896V7.28207H136.299V8.69807C137.182 7.63227 138.469 7.09937 140.159 7.09937ZM139.542 16.8286C140.456 16.8286 141.202 16.5241 141.78 15.9151C142.374 15.2908 142.671 14.461 142.671 13.4257C142.671 12.3903 142.374 11.5681 141.78 10.9591C141.202 10.3348 140.456 10.0227 139.542 10.0227C138.629 10.0227 137.875 10.3348 137.281 10.9591C136.702 11.5681 136.413 12.3903 136.413 13.4257C136.413 14.461 136.702 15.2908 137.281 15.9151C137.875 16.5241 138.629 16.8286 139.542 16.8286Z" fill="#46587E"/>
<path d="M155.927 7.09937C157.069 7.09937 158.105 7.36582 159.033 7.89872C159.977 8.4164 160.716 9.15485 161.249 10.1141C161.782 11.0581 162.048 12.1619 162.048 13.4257C162.048 14.6894 161.782 15.8009 161.249 16.7601C160.716 17.7041 159.977 18.4426 159.033 18.9755C158.105 19.4932 157.069 19.752 155.927 19.752C154.359 19.752 153.126 19.2572 152.227 18.2675V24H148.665V7.28207H152.067V8.69807C152.951 7.63227 154.237 7.09937 155.927 7.09937ZM155.311 16.8286C156.224 16.8286 156.97 16.5241 157.549 15.9151C158.143 15.2908 158.439 14.461 158.439 13.4257C158.439 12.3903 158.143 11.5681 157.549 10.9591C156.97 10.3348 156.224 10.0227 155.311 10.0227C154.397 10.0227 153.643 10.3348 153.05 10.9591C152.471 11.5681 152.182 12.3903 152.182 13.4257C152.182 14.461 152.471 15.2908 153.05 15.9151C153.643 16.5241 154.397 16.8286 155.311 16.8286Z" fill="#46587E"/>
</svg>
