<svg width="184" height="64" viewBox="0 0 184 64" fill="none" xmlns="http://www.w3.org/2000/svg">
<path fill-rule="evenodd" clip-rule="evenodd" d="M5.84924e-06 16C6.62176e-06 7.16344 7.16345 -2.63932e-07 16 5.08584e-07C24.8366 1.2811e-06 32 7.16345 32 16C32 24.8366 24.8366 32 16 32C7.16345 32 5.07673e-06 24.8366 5.84924e-06 16ZM3.20001 13.8667C3.20001 7.97563 7.97563 3.2 13.8667 3.2C18.2029 3.2 21.9348 5.78743 23.6026 9.50259C26.2677 11.4418 28 14.5852 28 18.1333C28 24.0244 23.2244 28.8 17.3333 28.8C12.9971 28.8 9.26524 26.2126 7.59738 22.4974C4.93235 20.5582 3.20001 17.4148 3.20001 13.8667Z" fill="#151B22"/>
<path d="M24.5333 13.8667C24.5333 19.7577 19.7577 24.5333 13.8667 24.5333C11.5237 24.5333 9.3572 23.7779 7.59738 22.4974C9.26523 26.2126 12.9971 28.8 17.3333 28.8C23.2244 28.8 28 24.0244 28 18.1333C28 14.5852 26.2677 11.4418 23.6026 9.50257C24.2007 10.8347 24.5333 12.3118 24.5333 13.8667Z" fill="#59F3B2"/>
<path fill-rule="evenodd" clip-rule="evenodd" d="M13.8667 3.20001C7.9757 3.20001 3.20007 7.97564 3.20007 13.8667C3.20007 17.4148 4.93242 20.5582 7.59744 22.4974C6.99941 21.1653 6.66674 19.6882 6.66674 18.1333C6.66674 12.2423 11.4424 7.46668 17.3334 7.46668C19.6764 7.46668 21.8429 8.22208 23.6027 9.5026C21.9348 5.78744 18.203 3.20001 13.8667 3.20001Z" fill="#34C186"/>
<path d="M108.667 17.3333H112.333L117.667 24.6666H114L108.667 17.3333Z" fill="#34C186"/>
<path fill-rule="evenodd" clip-rule="evenodd" d="M101.59 23.7067C103.119 24.5244 104.835 24.9333 106.737 24.9333C108.565 24.9333 110.22 24.5558 111.703 23.8008L109.82 21.2113C108.895 21.666 107.867 21.8933 106.737 21.8933C105.493 21.8933 104.373 21.6178 103.377 21.0667C102.381 20.4978 101.599 19.7156 101.03 18.72C100.461 17.7067 100.177 16.5778 100.177 15.3333C100.177 14.0889 100.461 12.9689 101.03 11.9733C101.599 10.96 102.381 10.1778 103.377 9.62667C104.373 9.05778 105.493 8.77334 106.737 8.77334C107.981 8.77334 109.101 9.05778 110.097 9.62667C111.093 10.1778 111.875 10.96 112.444 11.9733C113.013 12.9689 113.297 14.0889 113.297 15.3333C113.297 16.2817 113.132 17.163 112.801 17.9772L114.999 20.9992C115.171 20.7644 115.332 20.5203 115.484 20.2667C116.355 18.8089 116.79 17.1644 116.79 15.3333C116.79 13.5022 116.355 11.8578 115.484 10.4C114.613 8.94223 113.413 7.80445 111.884 6.98667C110.355 6.15111 108.639 5.73334 106.737 5.73334C104.835 5.73334 103.119 6.15111 101.59 6.98667C100.061 7.80445 98.8615 8.95112 97.9904 10.4267C97.1193 11.8844 96.6837 13.52 96.6837 15.3333C96.6837 17.1467 97.1193 18.7911 97.9904 20.2667C98.8615 21.7245 100.061 22.8711 101.59 23.7067ZM44.1733 22.7733C45.6311 24.2133 47.64 24.9333 50.2 24.9333C52.7422 24.9333 54.7333 24.2133 56.1733 22.7733C57.6311 21.3333 58.36 19.2533 58.36 16.5333V6H54.9466V16.4C54.9466 18.32 54.5377 19.7156 53.72 20.5867C52.9022 21.4578 51.7377 21.8933 50.2266 21.8933C48.7155 21.8933 47.5422 21.4578 46.7066 20.5867C45.8889 19.7156 45.48 18.32 45.48 16.4V6H42.0133V16.5333C42.0133 19.2533 42.7333 21.3333 44.1733 22.7733ZM65.215 6V24.6667H74.495C76.9127 24.6667 78.735 24.2222 79.9616 23.3333C81.1883 22.4444 81.8016 21.2 81.8016 19.6C81.8016 18.5156 81.5527 17.6089 81.055 16.88C80.575 16.1511 79.9172 15.6 79.0816 15.2267C78.8692 15.1273 78.65 15.0405 78.4238 14.9663C79.1396 14.5818 79.7144 14.0641 80.1483 13.4133C80.6105 12.7022 80.8416 11.8489 80.8416 10.8533C80.8416 9.37778 80.255 8.20445 79.0816 7.33334C77.9083 6.44445 76.2016 6 73.9616 6H65.215ZM74.2816 21.9467H68.6816V16.56H74.2816C75.5794 16.56 76.575 16.7822 77.2683 17.2267C77.9616 17.6533 78.3083 18.3289 78.3083 19.2533C78.3083 20.1956 77.9616 20.88 77.2683 21.3067C76.575 21.7333 75.5794 21.9467 74.2816 21.9467ZM68.6816 13.8667V8.72H73.5883C74.7972 8.72 75.7216 8.93334 76.3616 9.36001C77.0194 9.78667 77.3483 10.4356 77.3483 11.3067C77.3483 12.16 77.0194 12.8 76.3616 13.2267C75.7216 13.6533 74.7972 13.8667 73.5883 13.8667H68.6816ZM87.5014 24.6667V6H90.9681V24.6667H87.5014ZM130.492 24.9333C127.932 24.9333 125.923 24.2133 124.465 22.7733C123.025 21.3333 122.305 19.2533 122.305 16.5333V6H125.772V16.4C125.772 18.32 126.181 19.7156 126.998 20.5867C127.834 21.4578 129.007 21.8933 130.518 21.8933C132.029 21.8933 133.194 21.4578 134.012 20.5867C134.829 19.7156 135.238 18.32 135.238 16.4V6H138.652V16.5333C138.652 19.2533 137.923 21.3333 136.465 22.7733C135.025 24.2133 133.034 24.9333 130.492 24.9333ZM145.507 6V24.6667H154.787C157.204 24.6667 159.027 24.2222 160.253 23.3333C161.48 22.4444 162.093 21.2 162.093 19.6C162.093 18.5156 161.844 17.6089 161.347 16.88C160.867 16.1511 160.209 15.6 159.373 15.2267C159.161 15.1273 158.942 15.0405 158.715 14.9663C159.431 14.5818 160.006 14.0641 160.44 13.4133C160.902 12.7022 161.133 11.8489 161.133 10.8533C161.133 9.37778 160.547 8.20445 159.373 7.33334C158.2 6.44445 156.493 6 154.253 6H145.507ZM154.573 21.9467H148.973V16.56H154.573C155.871 16.56 156.867 16.7822 157.56 17.2267C158.253 17.6533 158.6 18.3289 158.6 19.2533C158.6 20.1956 158.253 20.88 157.56 21.3067C156.867 21.7333 155.871 21.9467 154.573 21.9467ZM148.973 13.8667V8.72H153.88C155.089 8.72 156.013 8.93334 156.653 9.36001C157.311 9.78667 157.64 10.4356 157.64 11.3067C157.64 12.16 157.311 12.8 156.653 13.2267C156.013 13.6533 155.089 13.8667 153.88 13.8667H148.973ZM171.26 21.76V16.6133H180.273V13.76H171.26V8.90667H181.42V6H167.793V24.6667H181.793V21.76H171.26Z" fill="#151B22"/>
<path fill-rule="evenodd" clip-rule="evenodd" d="M5.84924e-06 48C6.62176e-06 39.1634 7.16345 32 16 32C24.8366 32 32 39.1634 32 48C32 56.8366 24.8366 64 16 64C7.16345 64 5.07673e-06 56.8366 5.84924e-06 48ZM3.20001 45.8667C3.20001 39.9756 7.97563 35.2 13.8667 35.2C18.2029 35.2 21.9348 37.7874 23.6026 41.5026C26.2677 43.4418 28 46.5852 28 50.1333C28 56.0244 23.2244 60.8 17.3333 60.8C12.9971 60.8 9.26524 58.2126 7.59738 54.4974C4.93235 52.5582 3.20001 49.4148 3.20001 45.8667Z" fill="white"/>
<path d="M24.5333 45.8667C24.5333 51.7578 19.7577 56.5334 13.8667 56.5334C11.5237 56.5334 9.3572 55.778 7.59738 54.4975C9.26523 58.2126 12.9971 60.8 17.3333 60.8C23.2244 60.8 28 56.0244 28 50.1334C28 46.5853 26.2677 43.4418 23.6026 41.5026C24.2007 42.8348 24.5333 44.3119 24.5333 45.8667Z" fill="#59F3B2"/>
<path fill-rule="evenodd" clip-rule="evenodd" d="M13.8667 35.2C7.9757 35.2 3.20007 39.9756 3.20007 45.8667C3.20007 49.4148 4.93242 52.5582 7.59744 54.4974C6.99941 53.1653 6.66674 51.6882 6.66674 50.1333C6.66674 44.2423 11.4424 39.4667 17.3334 39.4667C19.6764 39.4667 21.8429 40.2221 23.6027 41.5026C21.9348 37.7874 18.203 35.2 13.8667 35.2Z" fill="#34C186"/>
<path d="M108.667 49.3334H112.333L117.667 56.6667H114L108.667 49.3334Z" fill="#34C186"/>
<path fill-rule="evenodd" clip-rule="evenodd" d="M101.59 55.7067C103.119 56.5244 104.835 56.9333 106.737 56.9333C108.565 56.9333 110.22 56.5558 111.703 55.8008L109.82 53.2113C108.895 53.666 107.867 53.8933 106.737 53.8933C105.493 53.8933 104.373 53.6178 103.377 53.0667C102.381 52.4978 101.599 51.7156 101.03 50.72C100.461 49.7067 100.177 48.5778 100.177 47.3333C100.177 46.0889 100.461 44.9689 101.03 43.9733C101.599 42.96 102.381 42.1778 103.377 41.6267C104.373 41.0578 105.493 40.7733 106.737 40.7733C107.981 40.7733 109.101 41.0578 110.097 41.6267C111.093 42.1778 111.875 42.96 112.444 43.9733C113.013 44.9689 113.297 46.0889 113.297 47.3333C113.297 48.2817 113.132 49.163 112.801 49.9772L114.999 52.9992C115.171 52.7644 115.332 52.5203 115.484 52.2667C116.355 50.8089 116.79 49.1644 116.79 47.3333C116.79 45.5022 116.355 43.8578 115.484 42.4C114.613 40.9422 113.413 39.8044 111.884 38.9867C110.355 38.1511 108.639 37.7333 106.737 37.7333C104.835 37.7333 103.119 38.1511 101.59 38.9867C100.061 39.8044 98.8615 40.9511 97.9904 42.4267C97.1193 43.8844 96.6837 45.52 96.6837 47.3333C96.6837 49.1467 97.1193 50.7911 97.9904 52.2667C98.8615 53.7245 100.061 54.8711 101.59 55.7067ZM44.1733 54.7733C45.6311 56.2133 47.64 56.9333 50.2 56.9333C52.7422 56.9333 54.7333 56.2133 56.1733 54.7733C57.6311 53.3333 58.36 51.2533 58.36 48.5333V38H54.9466V48.4C54.9466 50.32 54.5377 51.7156 53.72 52.5867C52.9022 53.4578 51.7377 53.8933 50.2266 53.8933C48.7155 53.8933 47.5422 53.4578 46.7066 52.5867C45.8889 51.7156 45.48 50.32 45.48 48.4V38H42.0133V48.5333C42.0133 51.2533 42.7333 53.3333 44.1733 54.7733ZM65.215 38V56.6667H74.495C76.9127 56.6667 78.735 56.2222 79.9616 55.3333C81.1883 54.4444 81.8016 53.2 81.8016 51.6C81.8016 50.5156 81.5527 49.6089 81.055 48.88C80.575 48.1511 79.9172 47.6 79.0816 47.2267C78.8692 47.1273 78.65 47.0405 78.4238 46.9663C79.1396 46.5818 79.7144 46.0641 80.1483 45.4133C80.6105 44.7022 80.8416 43.8489 80.8416 42.8533C80.8416 41.3778 80.255 40.2044 79.0816 39.3333C77.9083 38.4444 76.2016 38 73.9616 38H65.215ZM74.2816 53.9467H68.6816V48.56H74.2816C75.5794 48.56 76.575 48.7822 77.2683 49.2267C77.9616 49.6533 78.3083 50.3289 78.3083 51.2533C78.3083 52.1956 77.9616 52.88 77.2683 53.3067C76.575 53.7333 75.5794 53.9467 74.2816 53.9467ZM68.6816 45.8667V40.72H73.5883C74.7972 40.72 75.7216 40.9333 76.3616 41.36C77.0194 41.7867 77.3483 42.4356 77.3483 43.3067C77.3483 44.16 77.0194 44.8 76.3616 45.2267C75.7216 45.6533 74.7972 45.8667 73.5883 45.8667H68.6816ZM87.5014 56.6667V38H90.9681V56.6667H87.5014ZM130.492 56.9333C127.932 56.9333 125.923 56.2133 124.465 54.7733C123.025 53.3333 122.305 51.2533 122.305 48.5333V38H125.772V48.4C125.772 50.32 126.181 51.7156 126.998 52.5867C127.834 53.4578 129.007 53.8933 130.518 53.8933C132.029 53.8933 133.194 53.4578 134.012 52.5867C134.829 51.7156 135.238 50.32 135.238 48.4V38H138.652V48.5333C138.652 51.2533 137.923 53.3333 136.465 54.7733C135.025 56.2133 133.034 56.9333 130.492 56.9333ZM145.507 38V56.6667H154.787C157.204 56.6667 159.027 56.2222 160.253 55.3333C161.48 54.4444 162.093 53.2 162.093 51.6C162.093 50.5156 161.844 49.6089 161.347 48.88C160.867 48.1511 160.209 47.6 159.373 47.2267C159.161 47.1273 158.942 47.0405 158.715 46.9663C159.431 46.5818 160.006 46.0641 160.44 45.4133C160.902 44.7022 161.133 43.8489 161.133 42.8533C161.133 41.3778 160.547 40.2044 159.373 39.3333C158.2 38.4444 156.493 38 154.253 38H145.507ZM154.573 53.9467H148.973V48.56H154.573C155.871 48.56 156.867 48.7822 157.56 49.2267C158.253 49.6533 158.6 50.3289 158.6 51.2533C158.6 52.1956 158.253 52.88 157.56 53.3067C156.867 53.7333 155.871 53.9467 154.573 53.9467ZM148.973 45.8667V40.72H153.88C155.089 40.72 156.013 40.9333 156.653 41.36C157.311 41.7867 157.64 42.4356 157.64 43.3067C157.64 44.16 157.311 44.8 156.653 45.2267C156.013 45.6533 155.089 45.8667 153.88 45.8667H148.973ZM171.26 53.76V48.6133H180.273V45.76H171.26V40.9067H181.42V38H167.793V56.6667H181.793V53.76H171.26Z" fill="white"/>
</svg>
