<svg width="184" height="24" viewBox="0 0 184 24" fill="none" xmlns="http://www.w3.org/2000/svg">
<g clip-path="url(#clip0_206_12319)">
<path fill-rule="evenodd" clip-rule="evenodd" d="M7.24796e-06 12C7.82734e-06 5.37258 5.37259 -1.97949e-07 12 3.81438e-07C18.6274 9.60825e-07 24 5.37258 24 12C24 18.6274 18.6274 24 12 24C5.37259 24 6.66857e-06 18.6274 7.24796e-06 12ZM2.40001 10.4C2.40001 5.98172 5.98173 2.4 10.4 2.4C13.6522 2.4 16.4511 4.34057 17.702 7.12694C19.7007 8.58133 21 10.9389 21 13.6C21 18.0183 17.4183 21.6 13 21.6C9.74784 21.6 6.94893 19.6594 5.69803 16.8731C3.69927 15.4187 2.40001 13.0611 2.40001 10.4Z" fill="white"/>
<path d="M18.4 10.3999C18.4 14.8181 14.8183 18.3999 10.4 18.3999C8.64279 18.3999 7.0179 17.8333 5.69803 16.8729C6.94893 19.6593 9.74784 21.5999 13 21.5999C17.4183 21.5999 21 18.0181 21 13.5999C21 10.9388 19.7007 8.58118 17.702 7.12679C18.1505 8.12589 18.4 9.23373 18.4 10.3999Z" fill="#34C186"/>
<path d="M10.3984 18.3999C14.8167 18.3999 18.3984 14.8182 18.3984 10.3999C18.3984 9.23379 18.1489 8.12594 17.7004 7.12684C16.3805 6.16645 14.7557 5.59991 12.9984 5.5999C8.58016 5.5999 4.99844 9.18162 4.99844 13.5999C4.99844 14.766 5.24794 15.8739 5.69647 16.873C7.01634 17.8334 8.64123 18.3999 10.3984 18.3999Z" fill="#58F0B0"/>
<path d="M30.9817 20.25V3.70689H32.9196L40.3404 16.2088H39.3006L46.6268 3.70689H48.5647L48.5884 20.25H46.3196L46.2959 7.27548H46.8395L40.3168 18.2412H39.2297L32.6597 7.27548H33.2505V20.25H30.9817Z" fill="white"/>
<path d="M58.3743 20.4391C57.1139 20.4391 55.9086 20.25 54.7584 19.8719C53.6083 19.478 52.7024 18.9739 52.0406 18.3594L52.9151 16.516C53.5453 17.0675 54.3488 17.5244 55.3256 17.8867C56.3025 18.2491 57.3187 18.4303 58.3743 18.4303C59.3354 18.4303 60.1153 18.32 60.714 18.0994C61.3127 17.8789 61.7538 17.5795 62.0374 17.2014C62.321 16.8075 62.4628 16.3663 62.4628 15.8779C62.4628 15.3107 62.2738 14.8538 61.8956 14.5072C61.5332 14.1606 61.0527 13.8849 60.454 13.68C59.8711 13.4595 59.2251 13.2704 58.5161 13.1128C57.8071 12.9553 57.0902 12.7741 56.3655 12.5693C55.6565 12.3487 55.0026 12.073 54.4039 11.7421C53.821 11.4113 53.3483 10.9701 52.986 10.4187C52.6236 9.85149 52.4424 9.12674 52.4424 8.24444C52.4424 7.39365 52.663 6.61375 53.1041 5.90476C53.561 5.18001 54.2543 4.60494 55.1838 4.17955C56.1292 3.7384 57.3266 3.51782 58.7761 3.51782C59.7371 3.51782 60.6903 3.64387 61.6357 3.89595C62.581 4.14804 63.4003 4.51041 64.0935 4.98307L63.3136 6.87372C62.6046 6.40106 61.8562 6.06232 61.0685 5.8575C60.2807 5.63692 59.5166 5.52663 58.7761 5.52663C57.8465 5.52663 57.0824 5.6448 56.4836 5.88113C55.8849 6.11746 55.4438 6.43257 55.1602 6.82645C54.8924 7.22034 54.7584 7.66149 54.7584 8.1499C54.7584 8.73285 54.9396 9.19764 55.302 9.54426C55.6801 9.89087 56.1607 10.1666 56.7436 10.3714C57.3423 10.5762 57.9962 10.7653 58.7052 10.9386C59.4142 11.0962 60.1231 11.2773 60.8321 11.4822C61.5569 11.687 62.2107 11.9548 62.7937 12.2857C63.3924 12.6166 63.8729 13.0577 64.2353 13.6091C64.5977 14.1606 64.7789 14.8696 64.7789 15.7361C64.7789 16.5712 64.5504 17.351 64.0935 18.0758C63.6366 18.7848 62.9276 19.3599 61.9665 19.801C61.0212 20.2264 59.8238 20.4391 58.3743 20.4391Z" fill="white"/>
<path d="M81.7682 7.53552V20.2501H78.2469V18.7849C77.3331 19.8877 76.0096 20.4392 74.2765 20.4392C73.0791 20.4392 71.992 20.1713 71.0152 19.6357C70.0541 19.1 69.2978 18.3358 68.7464 17.3432C68.1949 16.3507 67.9192 15.2005 67.9192 13.8928C67.9192 12.5851 68.1949 11.435 68.7464 10.4424C69.2978 9.4498 70.0541 8.68566 71.0152 8.14998C71.992 7.61429 73.0791 7.34645 74.2765 7.34645C75.8993 7.34645 77.1676 7.8585 78.0814 8.8826V7.53552H81.7682ZM74.9146 17.4141C75.8442 17.4141 76.6162 17.099 77.2307 16.4688C77.8451 15.8228 78.1523 14.9642 78.1523 13.8928C78.1523 12.8214 77.8451 11.9707 77.2307 11.3404C76.6162 10.6945 75.8442 10.3715 74.9146 10.3715C73.9693 10.3715 73.1894 10.6945 72.5749 11.3404C71.9605 11.9707 71.6532 12.8214 71.6532 13.8928C71.6532 14.9642 71.9605 15.8228 72.5749 16.4688C73.1894 17.099 73.9693 17.4141 74.9146 17.4141Z" fill="white"/>
<path d="M91.3261 20.4392C89.9712 20.4392 88.7501 20.1635 87.663 19.612C86.5916 19.0448 85.7487 18.2649 85.1343 17.2723C84.5355 16.2798 84.2362 15.1532 84.2362 13.8928C84.2362 12.6324 84.5355 11.5059 85.1343 10.5133C85.7487 9.52069 86.5916 8.74868 87.663 8.19724C88.7501 7.63005 89.9712 7.34645 91.3261 7.34645C92.6653 7.34645 93.8312 7.63005 94.8238 8.19724C95.8322 8.74868 96.5648 9.54433 97.0217 10.5842L94.1621 12.1203C93.5004 10.9544 92.5472 10.3715 91.3025 10.3715C90.3414 10.3715 89.5458 10.6866 88.9155 11.3168C88.2853 11.947 87.9702 12.8057 87.9702 13.8928C87.9702 14.9799 88.2853 15.8386 88.9155 16.4688C89.5458 17.099 90.3414 17.4141 91.3025 17.4141C92.5629 17.4141 93.5161 16.8312 94.1621 15.6653L97.0217 17.2251C96.5648 18.2334 95.8322 19.0212 94.8238 19.5884C93.8312 20.1556 92.6653 20.4392 91.3261 20.4392Z" fill="white"/>
<path d="M106.709 19.6357C106.347 19.9035 105.898 20.1083 105.362 20.2501C104.842 20.3762 104.299 20.4392 103.731 20.4392C102.203 20.4392 101.029 20.0532 100.21 19.2812C99.3908 18.5091 98.9812 17.3748 98.9812 15.878V4.72318H102.668V7.81911H105.811V10.6551H102.668V15.8307C102.668 16.3664 102.802 16.7839 103.07 17.0833C103.338 17.3669 103.724 17.5087 104.228 17.5087C104.795 17.5087 105.299 17.3511 105.74 17.036L106.709 19.6357Z" fill="white"/>
<path d="M108.792 7.53552H112.478V20.2501H108.792V7.53552ZM110.635 5.76304C109.957 5.76304 109.406 5.56609 108.981 5.17221C108.555 4.77832 108.342 4.28991 108.342 3.70696C108.342 3.12401 108.555 2.63559 108.981 2.24171C109.406 1.84782 109.957 1.65088 110.635 1.65088C111.312 1.65088 111.864 1.83994 112.289 2.21807C112.715 2.5962 112.927 3.06886 112.927 3.63606C112.927 4.25052 112.715 4.76257 112.289 5.17221C111.864 5.56609 111.312 5.76304 110.635 5.76304Z" fill="white"/>
<path d="M128.52 7.53552L123.155 20.2501H119.35L114.009 7.53552H117.814L121.336 16.1852L124.975 7.53552H128.52Z" fill="white"/>
<path d="M142.582 7.53552V20.2501H139.061V18.7849C138.147 19.8877 136.823 20.4392 135.09 20.4392C133.893 20.4392 132.806 20.1713 131.829 19.6357C130.868 19.1 130.111 18.3358 129.56 17.3432C129.009 16.3507 128.733 15.2005 128.733 13.8928C128.733 12.5851 129.009 11.435 129.56 10.4424C130.111 9.4498 130.868 8.68566 131.829 8.14998C132.806 7.61429 133.893 7.34645 135.09 7.34645C136.713 7.34645 137.981 7.8585 138.895 8.8826V7.53552H142.582ZM135.728 17.4141C136.658 17.4141 137.43 17.099 138.044 16.4688C138.659 15.8228 138.966 14.9642 138.966 13.8928C138.966 12.8214 138.659 11.9707 138.044 11.3404C137.43 10.6945 136.658 10.3715 135.728 10.3715C134.783 10.3715 134.003 10.6945 133.389 11.3404C132.774 11.9707 132.467 12.8214 132.467 13.8928C132.467 14.9642 132.774 15.8228 133.389 16.4688C134.003 17.099 134.783 17.4141 135.728 17.4141Z" fill="white"/>
<path d="M153.652 19.6357C153.29 19.9035 152.841 20.1083 152.305 20.2501C151.785 20.3762 151.242 20.4392 150.674 20.4392C149.146 20.4392 147.972 20.0532 147.153 19.2812C146.334 18.5091 145.924 17.3748 145.924 15.878V4.72318H149.611V7.81911H152.754V10.6551H149.611V15.8307C149.611 16.3664 149.745 16.7839 150.013 17.0833C150.281 17.3669 150.667 17.5087 151.171 17.5087C151.738 17.5087 152.242 17.3511 152.683 17.036L153.652 19.6357Z" fill="white"/>
<path d="M161.392 20.4392C160.053 20.4392 158.848 20.1635 157.776 19.612C156.721 19.0448 155.894 18.2649 155.295 17.2723C154.696 16.2798 154.397 15.1532 154.397 13.8928C154.397 12.6324 154.696 11.5059 155.295 10.5133C155.894 9.52069 156.721 8.74868 157.776 8.19724C158.848 7.63005 160.053 7.34645 161.392 7.34645C162.731 7.34645 163.929 7.63005 164.985 8.19724C166.04 8.74868 166.867 9.52069 167.466 10.5133C168.065 11.5059 168.364 12.6324 168.364 13.8928C168.364 15.1532 168.065 16.2798 167.466 17.2723C166.867 18.2649 166.04 19.0448 164.985 19.612C163.929 20.1635 162.731 20.4392 161.392 20.4392ZM161.392 17.4141C162.338 17.4141 163.11 17.099 163.708 16.4688C164.323 15.8228 164.63 14.9642 164.63 13.8928C164.63 12.8214 164.323 11.9707 163.708 11.3404C163.11 10.6945 162.338 10.3715 161.392 10.3715C160.447 10.3715 159.667 10.6945 159.053 11.3404C158.438 11.9707 158.131 12.8214 158.131 13.8928C158.131 14.9642 158.438 15.8228 159.053 16.4688C159.667 17.099 160.447 17.4141 161.392 17.4141Z" fill="white"/>
<path d="M174.35 9.21346C174.791 8.599 175.382 8.13422 176.122 7.81911C176.878 7.504 177.745 7.34645 178.722 7.34645V10.7496C178.312 10.7181 178.036 10.7023 177.895 10.7023C176.839 10.7023 176.012 11.0017 175.413 11.6004C174.814 12.1834 174.515 13.0657 174.515 14.2473V20.2501H170.828V7.53552H174.35V9.21346Z" fill="white"/>
</g>
<defs>
<clipPath id="clip0_206_12319">
<rect width="184" height="24" fill="white"/>
</clipPath>
</defs>
</svg>
