<svg width="97" height="32" viewBox="0 0 97 32" fill="none" xmlns="http://www.w3.org/2000/svg">
<g clip-path="url(#clip0_205_12280)">
<path d="M96.3182 7.61879C97.6311 15.1426 77.1486 24.9958 50.5642 29.626C23.983 34.2561 1.37025 31.9066 0.059456 24.3796C-1.25028 16.8547 19.2375 7.00469 45.8187 2.37561C72.4009 -2.25664 95.0095 0.0928404 96.3182 7.61879Z" fill="#151B22"/>
<path d="M71.2999 18.7881L71.1633 10.9646H73.6303V20.8252H70.0834L67.6216 12.7328H67.5687L67.7053 20.8252H65.2542V10.9646H68.9547L71.2449 18.7881H71.2999Z" fill="white"/>
<path d="M26.4565 11.8879L25.0918 20.929H22.4013L24.2489 10.9646H28.6811L30.5202 20.929H27.8404L26.5127 11.8879H26.4565Z" fill="white"/>
<path d="M36.7862 20.929L35.1196 11.9705H35.0656L35.0032 20.929H32.5076L32.7278 10.9646H36.7936L38.0239 18.5816H38.0769L39.3082 10.9646H43.3719L43.5879 20.929H41.0976L41.032 11.9705H40.9801L39.3146 20.929H36.7862Z" fill="white"/>
<path d="M18.2052 18.1179C18.3026 18.3593 18.273 18.6695 18.2274 18.857C18.1438 19.1884 17.9193 19.5261 17.2565 19.5261C16.6318 19.5261 16.2528 19.1682 16.2528 18.6208V17.6563H13.5804L13.5783 18.4281C13.5783 20.6495 15.3274 21.3197 17.2015 21.3197C19.0035 21.3197 20.488 20.7035 20.7241 19.0433C20.8448 18.1825 20.7548 17.6192 20.7135 17.4064C20.2932 15.3206 16.5111 14.698 16.2295 13.5312C16.1818 13.3311 16.1956 13.1193 16.2189 13.006C16.2877 12.6884 16.5058 12.3379 17.1295 12.3379C17.7118 12.3379 18.0559 12.6979 18.0559 13.2421C18.0559 13.4253 18.0559 13.8573 18.0559 13.8573H20.5409V13.1574C20.5409 10.9869 18.5927 10.6481 17.1813 10.6481C15.4089 10.6481 13.9605 11.2336 13.6958 12.8557C13.6238 13.3035 13.6132 13.7027 13.718 14.2025C14.1532 16.2385 17.6928 16.8283 18.2052 18.1179Z" fill="white"/>
<path d="M50.6066 18.0998C50.705 18.3391 50.6733 18.6408 50.6288 18.8282C50.5473 19.1586 50.3249 19.491 49.6664 19.491C49.0501 19.491 48.6743 19.1332 48.6743 18.5985L48.6721 17.6424H46.0273L46.0241 18.4037C46.0241 20.6028 47.7573 21.2667 49.6123 21.2667C51.3954 21.2667 52.866 20.6589 53.0979 19.0135C53.2186 18.1591 53.1329 17.6032 53.0894 17.3946C52.6712 15.3278 48.9273 14.7116 48.6488 13.5565C48.6012 13.3574 48.615 13.1478 48.6393 13.0408C48.7102 12.7211 48.9241 12.3791 49.5414 12.3791C50.1184 12.3791 50.4551 12.7306 50.4551 13.2706C50.4551 13.4516 50.4551 13.8794 50.4551 13.8794H52.9211V13.1869C52.9211 11.0397 50.9888 10.703 49.5912 10.703C47.8389 10.703 46.4021 11.2811 46.1427 12.8915C46.0707 13.3331 46.0632 13.7248 46.1659 14.2225C46.5948 16.2374 50.0994 16.8229 50.6066 18.0998Z" fill="white"/>
<path d="M58.9763 19.4381C59.6677 19.4381 59.8837 18.9596 59.9314 18.715C59.9515 18.607 59.9568 18.463 59.9547 18.3338V10.9603H62.4746V18.1083C62.4799 18.2915 62.4619 18.6684 62.4534 18.7626C62.2766 20.6229 60.8059 21.2265 58.9753 21.2265C57.1425 21.2265 55.6707 20.6229 55.496 18.7626C55.4876 18.6684 55.4696 18.2915 55.4749 18.1083V10.9603H57.9927V18.3338C57.9927 18.463 57.9969 18.608 58.016 18.715C58.07 18.9596 58.2796 19.4381 58.9763 19.4381Z" fill="white"/>
<path d="M79.7627 19.3334C80.4848 19.3334 80.7368 18.8771 80.7834 18.6113C80.8014 18.4969 80.8067 18.3582 80.8056 18.2322V16.7859H79.7828V15.3311H83.316V18.0057C83.3139 18.192 83.3097 18.3297 83.28 18.6621C83.1138 20.4748 81.5415 21.1217 79.7754 21.1217C78.0062 21.1217 76.436 20.4748 76.2676 18.6621C76.239 18.3297 76.2348 18.192 76.2316 18.0057L76.2337 13.8096C76.2337 13.6328 76.256 13.3194 76.275 13.1532C76.4963 11.2907 78.0062 10.6915 79.7754 10.6915C81.5426 10.6915 83.0895 11.2876 83.2726 13.1532C83.3055 13.4708 83.2949 13.8096 83.2949 13.8096V14.1421H80.7823V13.5841C80.7845 13.5852 80.7792 13.3469 80.7495 13.2051C80.7072 12.9848 80.5155 12.4787 79.7564 12.4787C79.03 12.4787 78.8172 12.9573 78.7643 13.2051C78.7336 13.3364 78.7219 13.5142 78.7219 13.6752V18.2322C78.7198 18.3582 78.7272 18.4969 78.7473 18.6113C78.7907 18.8781 79.0417 19.3334 79.7627 19.3334Z" fill="white"/>
</g>
<defs>
<clipPath id="clip0_205_12280">
<rect width="97" height="32" fill="white"/>
</clipPath>
</defs>
</svg>
