<svg width="112" height="32" viewBox="0 0 112 32" fill="none" xmlns="http://www.w3.org/2000/svg">
<path fill-rule="evenodd" clip-rule="evenodd" d="M13.4409 24.3551C11.9695 23.4333 10.885 20.2524 10.885 16.4721C10.885 16.3334 10.8856 16.1964 10.8891 16.06L10.8903 16.0618C6.79685 15.4186 3.83946 13.6563 3.76337 11.5716L3.75167 11.5962C2.75026 12.841 2.17845 14.2802 2.17845 15.8136C2.17845 20.3261 7.13162 24.0233 13.4145 24.3504L13.4409 24.3551ZM0.285675 16.1426C0.285675 11.094 6.56918 7 14.32 7C22.0713 7 28.3548 11.094 28.3548 16.1426C28.3548 21.1917 22.0713 25.2857 14.32 25.2857C6.56918 25.2857 0.285675 21.1917 0.285675 16.1426ZM14.3205 8.31921C15.8171 8.31921 17.0901 10.5895 17.5618 13.757L17.563 13.7517C20.4747 13.2987 22.5126 12.2534 22.5126 11.0366C22.5126 9.4043 18.8447 8.08217 14.3205 8.08217C9.79696 8.08217 6.12905 9.4043 6.12905 11.0366C6.12905 12.2534 8.16697 13.2981 11.0781 13.7517L11.0799 13.757C11.5516 10.5895 12.8246 8.31921 14.3205 8.31921ZM15.2265 24.3499C21.5095 24.0227 26.4632 20.3255 26.4632 15.8131C26.4632 14.2796 25.8908 12.8404 24.89 11.5956L24.8777 11.571C24.8022 13.6557 21.8448 15.418 17.7508 16.0612L17.7526 16.0595C17.7555 16.1958 17.7567 16.3328 17.7567 16.4715C17.7567 20.2518 16.6716 23.4327 15.2008 24.3545L15.2265 24.3499ZM14.3205 13.9917C14.9701 13.9925 15.6194 13.9647 16.2666 13.9086L16.266 13.9092C15.9558 11.8794 15.202 10.4461 14.3211 10.4461C13.4403 10.4461 12.687 11.8794 12.3763 13.9092L12.3757 13.9086C13.0225 13.9644 13.6714 13.9922 14.3205 13.9917ZM14.3205 21.5101C15.4472 21.5101 16.3667 19.1655 16.4152 16.2257L16.4211 16.2274C15.0239 16.3562 13.6178 16.3562 12.2206 16.2274L12.2264 16.2257C12.275 19.1655 13.1939 21.5101 14.3205 21.5101ZM71.901 16.1426C71.901 12.2839 75.0298 9.15498 78.8885 9.15498C82.749 9.15498 85.8773 12.2839 85.8773 16.1426C85.8773 20.0024 82.7484 23.1301 78.8885 23.1301C75.0298 23.1301 71.901 20.0024 71.901 16.1426ZM78.8885 20.5678C81.0435 20.5678 82.7912 18.5861 82.7912 16.142C82.7912 13.6985 81.0435 11.7167 78.8885 11.7167C76.7336 11.7167 74.9871 13.6985 74.9871 16.142C74.9871 18.5867 76.7342 20.5678 78.8885 20.5678ZM93.8066 12.0661V22.8129H90.8615V12.0661H90.872H86.7546V9.63666H97.9135V12.0661H93.8066ZM101.475 19.8485L101.473 19.8514L100.344 22.8135H96.9039L102.34 9.63666H106.005L111.441 22.8135H108.002L106.873 19.8514L106.869 19.8485H101.475ZM104.173 17.6245H106.026L106.025 17.6251L104.185 12.8024H104.16L102.321 17.6251L102.319 17.6245H104.173ZM39.5324 12.0661V22.8129H36.5879V12.0661H36.5984H32.4804V9.63666H43.6398V12.0661H39.5324ZM44.3931 16.1426C44.3931 12.2839 47.522 9.15498 51.3818 9.15498C55.2411 9.15498 58.37 12.2839 58.37 16.1426C58.37 20.0024 55.2411 23.1301 51.3818 23.1301C47.522 23.1301 44.3931 20.0024 44.3931 16.1426ZM51.3818 20.5678C53.5362 20.5678 55.2839 18.5861 55.2839 16.142C55.2839 13.6985 53.5362 11.7167 51.3818 11.7167C49.2269 11.7167 47.4798 13.6985 47.4798 16.142C47.4798 18.5867 49.2269 20.5678 51.3818 20.5678ZM65.1346 22.8129H66.6276V17.81L71.7646 9.63666H68.3261L65.1346 15.1751L61.9443 9.63666H58.5058L63.6422 17.81V22.8129H65.1346Z" fill="#151B22"/>
</svg>
