<svg width="79" height="32" viewBox="0 0 79 32" fill="none" xmlns="http://www.w3.org/2000/svg">
<path d="M36.7137 20.927V19.5221H38.3572V10.8025H36.7137V7.98907L39.2019 8.0148L41.6895 8.04053L43.6468 11.6736C44.723 13.6723 45.7127 15.5039 45.8463 15.7433L46.0886 16.1792L46.0907 13.4901L46.0936 10.8025H44.45V7.99193H50.9286V10.8025H49.285V22.3362L46.055 22.2834L44.087 18.6503C43.0043 16.6523 42.036 14.8643 41.9346 14.6771L41.7502 14.3384L41.7466 16.9302L41.7416 19.5221H43.1923V22.3327H36.7137V20.927Z" fill="#151B22"/>
<path d="M54.3129 20.927V19.5221H56.5389L56.5139 15.1866L56.4889 10.8504L55.6906 10.8218L54.8924 10.7946V13.4187H51.989L52.0404 8.04054L58.3497 8.01553L64.6597 7.98981V13.4187H61.8548V10.8025H60.2112V19.5221H62.3386V22.3327H54.3129V20.927Z" fill="#151B22"/>
<path d="M68.044 20.927V19.5221H70.1714V10.8025H68.5278V13.4187H65.723V7.99194H78.2943V13.4187H75.4895V10.8025H73.8459V19.5221H75.9733V22.3327H68.044V20.927Z" fill="#151B22"/>
<path d="M18.4558 2C17.2796 1.99929 15.9268 2.20938 15.0543 2.55954L14.6899 2.70603L14.4512 2.58955C14.1175 2.42805 13.2635 2.20724 12.5568 2.10005C11.6985 1.96999 10.4115 1.98071 9.58113 2.1272C6.17961 2.72318 3.10037 5.20215 1.51251 8.61726C-0.13037 12.151 -0.310451 16.7002 1.05302 20.2353C2.09634 22.9408 3.97362 25.2433 6.49546 26.909C8.71003 28.3733 11.3984 29.2801 13.8981 29.408C16.5364 29.5431 18.9825 29.0136 21.405 27.7837C22.875 27.037 24.0519 26.188 25.206 25.0418C26.4173 23.8384 27.1655 22.8001 27.8872 21.3237C28.5225 20.0245 28.9098 18.789 29.1499 17.2804C29.3079 16.2914 29.2921 13.7832 29.1221 12.6869C28.8677 11.0519 28.4789 9.7885 27.8 8.39716C26.125 4.96419 23.0415 2.59956 19.5492 2.07361C19.2205 2.02358 18.8482 2 18.4558 2ZM11.3276 5.37652L10.9582 5.78742C10.165 6.66853 9.49681 7.81476 9.13736 8.91239C8.27126 11.5543 8.82508 14.2012 10.5894 15.8541C12.4503 17.5984 15.1193 17.9786 17.4411 16.8324C19.8743 15.6304 21.1263 12.887 20.5732 9.96644C20.2988 8.51579 19.477 6.86576 18.538 5.87531C18.3251 5.65021 18.1514 5.44583 18.1514 5.42082C18.1514 5.39653 18.4144 5.39152 18.736 5.4101C20.198 5.49514 21.6716 6.23047 22.9457 7.51105C24.3849 8.95527 25.2382 10.6782 25.6669 13.0014C25.812 13.7867 25.8113 16.002 25.6648 16.8052C25.2746 18.949 24.4857 20.6434 23.1601 22.1812C21.3593 24.2721 18.7631 25.612 15.9125 25.925C12.2488 26.3259 8.48421 24.8353 6.17246 22.0676C4.63463 20.226 3.82355 18.1523 3.65347 15.6304C3.37335 11.4685 5.34066 7.59394 8.53209 6.02181C9.35961 5.61377 9.93486 5.45441 10.7302 5.4101L11.3276 5.37652ZM14.7277 6.30908C14.8907 6.30908 15.8847 7.32025 16.2191 7.82547C16.3649 8.04557 16.585 8.43146 16.7115 8.683C17.8649 10.9883 17.2239 13.5638 15.3823 14.0204C14.4276 14.2569 13.5586 14.0168 12.9384 13.3465C12.3931 12.7563 12.1609 12.0717 12.1587 11.0534C12.1573 10.1201 12.3245 9.45549 12.7919 8.54008C12.9448 8.24138 13.1956 7.82905 13.3507 7.62324C13.7309 7.11801 14.5784 6.30908 14.7277 6.30908Z" fill="#151B22"/>
</svg>
