<svg width="60" height="32" viewBox="0 0 60 32" fill="none" xmlns="http://www.w3.org/2000/svg">
<path d="M3.64374 18.2233H6.60986C7.17208 18.2233 7.69728 18.634 7.72579 19.1782H7.7528V16.9418H3.64374L3.64174 13.0163H7.60624C8.17095 13.0163 8.69665 13.4255 8.72616 13.9682H8.75217L8.74817 11.7304L0.428528 11.7339V11.7584C0.98874 11.7889 1.4089 12.3821 1.4089 12.9363V23.2197C1.4089 23.7719 0.98874 24.3676 0.428528 24.3991V24.4232H4.62611V24.3991C4.0654 24.3676 3.64174 23.7719 3.64174 23.2197L3.64374 18.2233Z" fill="#151B22"/>
<path d="M12.233 21.0107C12.233 22.3302 13.3334 23.4711 14.6914 23.4711C16.0479 23.4711 17.1523 22.3152 17.1523 20.9952V12.9361C17.1523 12.3819 16.7307 11.7887 16.169 11.7582V11.7342L20.3695 11.7302V11.7582C19.8088 11.7887 19.3842 12.3819 19.3842 12.9361V20.7671C19.3842 23.2875 17.2944 24.7561 14.7024 24.7561C12.1059 24.7561 9.99362 23.2875 9.99362 20.7671L9.99912 12.9361C9.99912 12.3819 9.57546 11.7887 9.01775 11.7582V11.7302H13.2123V11.7582C12.6531 11.7917 12.231 12.3854 12.231 12.9361L12.233 21.0107Z" fill="#151B22"/>
<path d="M46.5544 13.7856C45.8506 12.6517 44.2445 12.7883 44.2445 12.7883C41.6175 12.7883 41.7415 14.7865 41.7415 14.7865C41.7415 14.7865 41.561 15.7889 42.881 16.4727L45.5075 17.8642C48.0429 19.2207 47.7423 21.1484 47.7423 21.1484C47.7423 21.1484 47.8568 24.7498 42.5543 24.7498C42.5543 24.7498 41.0138 24.7968 40.1414 24.4707L39.3951 22.1383H39.4212C40.229 23.2997 42.5758 23.4673 42.5758 23.4673C45.5555 23.3367 45.576 21.318 45.576 21.318C45.576 21.318 45.71 20.4487 44.5436 19.8189L41.9296 18.4279C39.2006 16.9738 39.5132 15.0156 39.5132 15.0156C39.5132 15.0156 39.4487 11.4728 44.1399 11.4728C44.1399 11.4728 46.2457 11.5268 46.5814 11.8544V13.7856H46.5544Z" fill="#151B22"/>
<path d="M26.0871 7.31749C26.5523 7.77266 27.2015 8.05227 27.9103 8.05227C29.3383 8.05227 30.4943 6.92884 30.4943 5.54032C30.4943 4.15579 29.3383 3.03037 27.9103 3.03037C27.9103 3.03037 25.921 2.8468 25.0257 5.32173L25.0287 3.46403C25.6949 2.61621 26.7263 1.99998 27.9103 1.99998C29.925 1.99998 31.5552 3.58358 31.5552 5.54032C31.5552 7.49406 29.925 9.08366 27.9103 9.08366C26.9039 9.08366 25.9936 8.68901 25.3358 8.04526L24.0823 6.67525C23.7387 6.34162 23.266 6.13854 22.7478 6.13854C21.7039 6.13854 20.8576 6.95885 20.8576 7.97224C20.8576 8.98962 21.7039 9.81193 22.7478 9.81193C22.7478 9.81193 24.1439 9.994 25.0257 8.31187L25.0287 9.79943C24.4885 10.4367 23.6637 10.8433 22.7478 10.8433C21.1182 10.8433 19.7947 9.55784 19.7947 7.97224C19.7947 6.38964 21.1182 5.10715 22.7478 5.10715C23.5596 5.10715 24.2969 5.42427 24.8321 5.94747L26.0871 7.31749Z" fill="#151B22"/>
<path d="M26.7589 12.9095C26.7589 12.3548 26.3368 11.7866 25.7771 11.7581V11.7341H29.9682V11.7581C29.4119 11.7891 28.9878 12.3578 28.9878 12.9095V23.2149C28.9878 23.7681 29.4119 24.3633 29.9682 24.3964V24.4199H25.7771V24.3964C26.3368 24.3633 26.7589 23.7681 26.7589 23.2149V12.9095Z" fill="#151B22"/>
<path d="M24.1269 12.9364C24.1269 12.3822 24.5481 11.789 25.1083 11.7585V11.734H20.9107V11.7585C21.4724 11.789 21.8916 12.3822 21.8916 12.9364L21.8951 25.8198C21.8951 25.8198 21.848 28.0946 20.0154 29.4036L20.0199 29.4286C20.3815 29.3696 24.1299 28.6779 24.1299 25.057L24.1269 12.9364Z" fill="#151B22"/>
<path d="M29.9525 14.0169H29.9775C30.5457 13.028 31.422 13.0165 31.422 13.0165H33.6944L33.6959 23.2198C33.6959 23.7721 33.2732 24.3633 32.7135 24.3963V24.4198H36.9166V24.3963C36.3524 24.3633 35.9282 23.7681 35.9282 23.2198L35.9312 13.0165L37.8305 13.012C38.4072 13.012 38.8639 13.4592 38.8804 14.0169H38.9034L39.6011 11.73H30.6522L29.9525 14.0169Z" fill="#151B22"/>
<path d="M50.8695 21.0107C50.8695 22.3302 51.97 23.4711 53.3285 23.4711C54.6835 23.4711 55.7889 22.3152 55.7889 20.9952V12.9361C55.7889 12.3819 55.3668 11.7887 54.8075 11.7582V11.7342L59.0051 11.7302V11.7582C58.4484 11.7887 58.0243 12.3819 58.0243 12.9361V20.7671C58.0243 23.2875 55.9335 24.7561 53.3375 24.7561C50.746 24.7561 48.6332 23.2875 48.6332 20.7671L48.6362 12.9361C48.6362 12.3819 48.2135 11.7887 47.6528 11.7582V11.7302H51.8514V11.7582C51.2892 11.7917 50.8665 12.3854 50.8665 12.9361L50.8695 21.0107Z" fill="#151B22"/>
</svg>
