<svg width="133" height="32" viewBox="0 0 133 32" fill="none" xmlns="http://www.w3.org/2000/svg">
<g clip-path="url(#clip0_205_12289)">
<path d="M86.1443 23.384H82.5311V8.63806L94.1517 8.64763C94.1517 8.64763 96.2793 8.56827 97.6328 9.9054C97.6328 9.9054 99.0142 11.059 99.0142 13.8786V23.3817H95.4103V13.633C95.4103 13.633 95.4547 12.6386 95.116 12.2897C95.116 12.2897 94.8164 11.9106 94.247 11.9106H86.1354L86.143 23.3787L86.1443 23.384ZM101.525 23.3815V9.57567V8.64907H116.026V11.926L105.117 11.9252V14.4306H112.695V17.5949H105.117V20.1087H116.094V23.3865H101.517L101.525 23.3815ZM76.2346 23.3815V9.57567V8.64907H79.8326V23.3865H76.2346V23.3815ZM121.205 23.3815V11.9218H117.809V8.64484H131.318V11.9218H124.806V23.3815H121.208H121.205ZM64.3515 23.3815V11.9218H60.9551V8.64484H74.4644V11.9218H67.952V23.3815H64.354H64.3515ZM53.5017 14.4204C54.3808 14.4136 54.9068 14.4212 55.1186 14.2923C55.1186 14.2923 55.488 14.088 55.4922 13.6496L55.4931 12.6858C55.4931 12.2454 55.1194 12.0431 55.1194 12.0431C54.8389 11.8906 54.3635 11.9193 53.2349 11.9182H46.2253V14.4201H53.6626L53.5017 14.4204ZM55.4404 23.3815V18.3521C55.4404 17.9 55.0625 17.7105 55.0625 17.7105C54.8921 17.6046 54.3817 17.5856 53.6302 17.5856H53.8049H46.2253V23.3806H42.6273V9.57482V8.64823H53.8582C55.7978 8.65415 57.1369 8.93942 58.0593 9.83485C58.9655 10.7581 59.0858 11.9658 59.0909 13.2228V14.2722C59.1026 15.3402 58.5414 16.3143 57.8721 16.8817L58.0066 16.9485C58.2797 17.0808 58.4291 17.2682 58.4291 17.2682C58.9383 17.9183 58.932 18.4777 58.9309 19.1654V23.3843H55.4405L55.4404 23.3815ZM1.03035 8.64399V9.57143V23.3772H4.62833V17.5873H15.529V14.4212H4.62833V11.9176H17.2992V8.6406H1.02866L1.03035 8.64399Z" fill="#231F20"/>
<path d="M130.103 20.7753V21.4518H130.733C130.903 21.4518 131.068 21.4052 131.094 21.1522C131.13 20.8166 130.887 20.7753 130.733 20.7753H130.103ZM129.85 20.5529H130.727C131.032 20.5529 131.326 20.6101 131.352 21.0537C131.362 21.3078 131.285 21.3999 131.093 21.5449C131.296 21.6741 131.301 21.7048 131.332 22.0456C131.352 22.304 131.316 22.3453 131.425 22.5157H131.125L131.084 22.268C131.043 22.0351 131.156 21.6741 130.748 21.6741H130.102V22.5158H129.849L129.85 20.5529ZM130.51 20.0109C129.643 20.0109 128.936 20.7181 128.942 21.5913C128.942 22.4586 129.644 23.1659 130.516 23.1616C131.384 23.1616 132.092 22.4586 132.092 21.5862C132.092 20.7181 131.384 20.0109 130.51 20.0109ZM130.516 23.3666C129.53 23.3666 128.734 22.5715 128.734 21.5862C128.73 20.6046 129.53 19.8042 130.516 19.8042C131.498 19.8042 132.298 20.6046 132.298 21.5862C132.298 22.5721 131.498 23.3632 130.516 23.3666Z" fill="#231F20"/>
<path d="M37.6801 23.5279C38.8489 23.1309 39.7586 21.7848 39.9771 20.0926V19.6034H33.9847V23.5283H37.6792L37.6801 23.5279ZM39.9779 12.4071V11.9645C39.7482 10.1986 38.771 8.80697 37.5251 8.48004H33.9855V12.4066L39.9779 12.4071ZM18.8881 19.6039V20.0888C19.1051 21.7827 20.0146 23.1311 21.1868 23.5283H24.8627V19.6034L18.8881 19.6039ZM21.3401 8.483C20.0959 8.81011 19.1159 10.2024 18.8881 11.9709V12.4103H24.8627V8.48368L21.3401 8.483ZM39.9822 14.0443H33.9898V17.9709H39.9822V14.0443ZM26.4982 23.5305H32.3602V19.6056H26.4982V23.5305ZM32.3602 8.47961H26.4982V12.4062H32.3602V8.47961ZM18.8932 17.9658H24.8678V14.0392H18.8932V17.9658Z" fill="#231F20"/>
</g>
<defs>
<clipPath id="clip0_205_12289">
<rect width="132.129" height="16" fill="white" transform="translate(0.571289 8)"/>
</clipPath>
</defs>
</svg>
