<svg width="91" height="32" viewBox="0 0 91 32" fill="none" xmlns="http://www.w3.org/2000/svg">
<path d="M85.2052 27.3486H5.34013C2.74581 27.3486 0.651337 25.2464 0.651337 22.6596V10.189C0.651337 7.59444 2.75343 5.5 5.34013 5.5H85.214C87.8083 5.5 89.9027 7.60207 89.9027 10.189V22.6596C89.9027 25.2535 87.8014 27.3486 85.2052 27.3486Z" stroke="#151B22"/>
<path d="M54.8333 27.8571H5.33169C2.46917 27.8571 0.142899 25.5304 0.142899 22.6681V10.1888C0.142899 7.32627 2.46938 5 5.33169 5H54.8333C57.6958 5 60.0223 7.32649 60.0223 10.1888V22.6594C60.0223 25.5304 57.6958 27.8571 54.8333 27.8571Z" fill="#151B22"/>
<path d="M83.2942 18.3281C83.8736 17.3076 84.2197 16.1574 84.3407 15.0417H82.5505C82.5073 15.7335 82.3688 16.4341 82.1355 17.0567C81.9019 17.6708 81.5991 18.2154 81.2101 18.6739C80.6304 19.3485 79.8782 19.7809 79.0309 19.7809C78.0275 19.7809 77.3357 19.3485 77.0676 18.6307H75.1478C74.8365 19.3745 74.1013 19.7549 73.176 19.7549C72.1555 19.7549 71.1089 19.0199 70.9966 17.524H76.9897C77.1453 16.7888 77.7249 16.2351 78.6676 15.8806C78.6676 15.8806 79.5409 15.5608 80.4057 15.1888C81.5991 14.6353 82.4988 13.6494 82.4988 12.3954C82.4988 10.6139 80.9767 10 79.6016 10C77.8633 10 76.5833 10.908 76.5833 12.361C76.5833 13.217 77.0504 14.0214 77.7335 14.8258C77.3702 14.9556 77.0244 15.1198 76.7044 15.3273C76.1507 13.7967 74.8797 12.8106 73.1413 12.8106C70.8495 12.8106 69.1978 14.5317 69.1978 16.9529C69.1978 19.2534 70.6768 21.2251 73.2626 21.2251C74.4473 21.2251 75.3467 20.7927 75.9694 20.1873C76.6007 20.8359 77.5522 21.2251 78.7195 21.2251C80.1553 21.2251 81.3227 20.6542 82.2221 19.7724L83.3723 21.0264H85.8109L83.2942 18.3281ZM79.6014 11.3404C80.2587 11.3404 80.7947 11.7124 80.7947 12.4474C80.7947 13.1219 80.3883 13.779 79.4803 14.1855L79.4628 14.1682C78.9266 13.5975 78.4165 12.9402 78.4165 12.3175C78.4167 11.7036 78.97 11.3404 79.6014 11.3404ZM73.1241 14.1942C74.1704 14.1942 75.1306 14.9554 75.1737 16.2094H70.9881C71.1349 14.6872 72.2851 14.1942 73.1241 14.1942Z" fill="#151B22"/>
<path d="M10.088 21.0954C9.43065 21.0954 8.84249 20.983 8.33242 20.7494C7.82214 20.5157 7.40697 20.2044 7.06969 19.8154C6.73241 19.4262 6.48153 18.9681 6.30001 18.4488C6.12701 17.93 6.04062 17.3766 6.04062 16.7971C6.04062 16.183 6.13574 15.6297 6.32598 15.1195C6.51621 14.6092 6.78434 14.1768 7.12162 13.805C7.45889 13.4333 7.87406 13.1477 8.35838 12.9402C8.8427 12.7327 9.37894 12.6289 9.96689 12.6289C10.5983 12.6289 11.1602 12.75 11.6533 12.9921C12.1461 13.2343 12.5528 13.5629 12.8901 13.9865C13.2186 14.4104 13.4695 14.9033 13.6253 15.4827C13.7895 16.0621 13.8415 16.6848 13.8068 17.3678H7.86555C7.87427 17.6879 7.9347 17.9907 8.05578 18.2588C8.16814 18.5355 8.32391 18.7689 8.51415 18.9766C8.70438 19.1755 8.92931 19.3313 9.17998 19.4434C9.43938 19.556 9.71622 19.6077 10.0103 19.6077C10.9789 19.6077 11.6275 19.236 11.9476 18.4835H13.7031C13.6165 18.8036 13.4695 19.1234 13.2793 19.4347C13.089 19.7548 12.8469 20.0316 12.5528 20.2738C12.2587 20.5157 11.9042 20.7147 11.489 20.8704C11.0913 21.0175 10.6242 21.0954 10.088 21.0954ZM9.96689 14.0299C9.71622 14.0299 9.46534 14.0731 9.22318 14.151C8.98102 14.2289 8.75609 14.35 8.56585 14.523C8.36689 14.6873 8.21112 14.895 8.07302 15.1544C7.94322 15.4138 7.87406 15.7166 7.86533 16.0624H11.9818C11.9731 15.751 11.9127 15.4657 11.8003 15.215C11.688 14.9556 11.5409 14.7481 11.3679 14.5751C11.1862 14.4021 10.9787 14.2725 10.7366 14.1772C10.4944 14.0731 10.2437 14.0299 9.96689 14.0299Z" fill="white"/>
<path d="M15.1385 10.6746H16.9288V12.8107H18.5547V14.1079H16.9288V18.5097C16.9288 18.9249 16.9979 19.193 17.1277 19.3313C17.2575 19.4694 17.5169 19.5301 17.8974 19.5301H18.546V20.8966H17.2229C16.7905 20.8966 16.4444 20.8622 16.1678 20.8015C15.8997 20.7324 15.6835 20.6198 15.5365 20.4642C15.3894 20.3 15.2856 20.0838 15.2251 19.8069C15.1732 19.5301 15.1387 19.1843 15.1387 18.7778V14.0991H13.9367V12.8019H15.1387L15.1385 10.6746Z" fill="white"/>
<path d="M21.3566 10V11.8075H19.5663V10H21.3566ZM21.3566 12.8106V20.8966H19.5663V12.8106H21.3566Z" fill="white"/>
<path d="M27.739 15.085C27.6524 14.7045 27.4364 14.4277 27.1077 14.2549C26.7791 14.0819 26.3552 13.9955 25.8449 13.9955C25.4298 13.9955 25.084 14.0734 24.7812 14.2289C24.4873 14.3845 24.3403 14.6009 24.3403 14.8688C24.3403 15.3703 24.7295 15.6989 25.5164 15.8634L26.6148 16.0883C27.0125 16.1747 27.393 16.2786 27.7477 16.3996C28.1023 16.5118 28.4136 16.659 28.6732 16.8405C28.9328 17.0221 29.1401 17.247 29.2871 17.5064C29.4341 17.7745 29.512 18.1033 29.512 18.4923C29.512 18.9161 29.4169 19.2879 29.2354 19.6165C29.0537 19.9452 28.803 20.2133 28.4829 20.4293C28.1629 20.6457 27.7997 20.81 27.3845 20.9222C26.9693 21.0347 26.5284 21.0952 26.0528 21.0952C25.534 21.0952 25.0582 21.026 24.6346 20.8875C24.2107 20.7492 23.8389 20.5589 23.5361 20.3168C23.2335 20.0744 22.9826 19.7892 22.8009 19.4607C22.6192 19.1319 22.5068 18.7687 22.4636 18.3797H24.2105C24.2883 18.8119 24.4873 19.1494 24.7986 19.3828C25.1099 19.625 25.5511 19.746 26.1218 19.746C26.6233 19.746 27.0213 19.6509 27.3239 19.4692C27.6264 19.2875 27.7735 19.0283 27.7735 18.7082C27.7735 18.3882 27.6437 18.146 27.3756 17.9733C27.1074 17.8005 26.7614 17.6704 26.3293 17.584L25.1099 17.3244C24.7554 17.2555 24.4354 17.1604 24.1328 17.0478C23.8302 16.9352 23.5706 16.7795 23.3544 16.598C23.1382 16.4164 22.9652 16.183 22.8443 15.9234C22.7145 15.6555 22.6539 15.3354 22.6539 14.9722C22.6539 14.609 22.7405 14.2891 22.9133 14.0036C23.0863 13.7182 23.3284 13.476 23.6312 13.2771C23.9338 13.0781 24.2798 12.9226 24.6863 12.8102C25.0842 12.6979 25.5164 12.6459 25.9662 12.6459C26.3901 12.6459 26.7878 12.6979 27.1683 12.793C27.549 12.8966 27.8948 13.0436 28.1974 13.2513C28.5 13.4588 28.7596 13.7097 28.9758 14.021C29.192 14.3238 29.339 14.6868 29.4169 15.0935H27.7392L27.739 15.085Z" fill="white"/>
<path d="M34 12.5682C34.5016 12.5682 34.9686 12.6289 35.3923 12.75C35.816 12.871 36.188 13.07 36.4993 13.3381C36.8106 13.6063 37.0442 13.9608 37.2172 14.4019C37.3815 14.8428 37.4594 15.3878 37.4507 16.0276C37.4507 16.1315 37.4507 16.2613 37.442 16.4254C37.4332 16.5896 37.4332 16.7714 37.4332 16.9616C37.4332 17.1521 37.4332 17.351 37.4245 17.5585C37.4158 17.7662 37.4158 17.9562 37.4158 18.1379C37.4158 18.6482 37.4332 19.15 37.4764 19.6513C37.5196 20.1442 37.5803 20.568 37.6582 20.9055H36.015C35.989 20.7325 35.9545 20.568 35.9286 20.4127C35.9026 20.2482 35.8766 20.032 35.8594 19.7552C35.6087 20.2048 35.254 20.5423 34.7956 20.7672C34.3373 20.9921 33.801 21.1043 33.2044 21.1043C32.7632 21.1043 32.357 21.0439 31.9938 20.9313C31.6305 20.8187 31.3105 20.6544 31.0424 20.4385C30.7742 20.231 30.5755 19.9716 30.4284 19.6775C30.2814 19.3834 30.2122 19.0461 30.2122 18.6742C30.2122 18.1728 30.3593 17.7575 30.6446 17.4289C30.9387 17.1001 31.3277 16.8233 31.8208 16.616C32.3136 16.4083 32.8933 16.2441 33.5504 16.1319C34.2075 16.0193 34.908 15.924 35.6517 15.8463V15.6474C35.6517 15.3101 35.6085 15.0247 35.5134 14.7998C35.427 14.5749 35.2972 14.3934 35.1414 14.2551C34.9859 14.1167 34.8041 14.0214 34.5967 13.9697C34.389 13.9178 34.1555 13.8833 33.9049 13.8833C33.4465 13.8833 33.0573 14.0044 32.746 14.2466C32.4347 14.4887 32.2704 14.852 32.2532 15.345H30.4976C30.5236 14.9298 30.6359 14.5581 30.8174 14.2208C30.999 13.8835 31.2413 13.5894 31.5439 13.3386C31.8465 13.0964 32.2098 12.9062 32.6249 12.7678C33.0401 12.6376 33.4984 12.5682 34 12.5682ZM35.7036 17.0999C35.0638 17.1606 34.5188 17.2295 34.0692 17.3076C33.6195 17.3857 33.2476 17.4893 32.9535 17.6104C32.6596 17.7313 32.4519 17.8698 32.3136 18.0426C32.1753 18.2069 32.1146 18.4058 32.1146 18.6395C32.1146 18.994 32.253 19.2621 32.5211 19.4696C32.7892 19.6686 33.1524 19.7724 33.6021 19.7724C34.2592 19.7724 34.7782 19.5907 35.1499 19.2274C35.5217 18.8642 35.7034 18.2503 35.7034 17.4027V17.0999H35.7036Z" fill="white"/>
<path d="M40.7283 20.8966H38.938V10H40.7283V20.8966Z" fill="white"/>
<path d="M45.6837 12.5682C46.185 12.5682 46.6523 12.6289 47.076 12.75C47.4997 12.871 47.8716 13.07 48.1829 13.3381C48.4943 13.6063 48.7279 13.9608 48.9007 14.4019C49.0648 14.8428 49.1429 15.3878 49.1343 16.0276C49.1343 16.1315 49.1343 16.2613 49.1256 16.4254C49.1169 16.5896 49.1169 16.7714 49.1169 16.9616C49.1169 17.1521 49.1169 17.351 49.1082 17.5585C49.0997 17.7662 49.0997 17.9562 49.0997 18.1379C49.0997 18.6482 49.1169 19.15 49.1601 19.6513C49.2033 20.1442 49.2639 20.568 49.3418 20.9055H47.6986C47.6724 20.7325 47.638 20.568 47.612 20.4127C47.5861 20.2482 47.5603 20.032 47.5429 19.7552C47.2922 20.2048 46.9375 20.5423 46.4793 20.7672C46.0209 20.9921 45.4847 21.1043 44.8878 21.1043C44.4467 21.1043 44.0405 21.0439 43.6772 20.9313C43.314 20.8187 42.9939 20.6544 42.7258 20.4385C42.4577 20.231 42.2589 19.9716 42.1119 19.6775C41.9649 19.3834 41.8957 19.0461 41.8957 18.6742C41.8957 18.1728 42.0427 17.7575 42.3281 17.4289C42.6222 17.1001 43.0112 16.8233 43.5042 16.616C43.9971 16.4083 44.5767 16.2441 45.2338 16.1319C45.8911 16.0193 46.5914 15.924 47.3354 15.8463V15.6474C47.3354 15.3101 47.2922 15.0247 47.1971 14.7998C47.1107 14.5749 46.9807 14.3934 46.8251 14.2551C46.6695 14.1167 46.4878 14.0214 46.2801 13.9697C46.0727 13.9178 45.8392 13.8833 45.5883 13.8833C45.13 13.8833 44.7408 14.0044 44.4295 14.2466C44.1181 14.4887 43.9539 14.852 43.9366 15.345H42.1811C42.207 14.9298 42.3194 14.5581 42.5009 14.2208C42.6824 13.8835 42.9248 13.5894 43.2274 13.3386C43.53 13.0964 43.8932 12.9062 44.3084 12.7678C44.7235 12.6376 45.1819 12.5682 45.6837 12.5682ZM47.3873 17.0999C46.7474 17.1606 46.2027 17.2295 45.7528 17.3076C45.303 17.3855 44.9312 17.4893 44.6371 17.6104C44.3431 17.7313 44.1356 17.8698 43.9973 18.0426C43.8589 18.2069 43.7983 18.4058 43.7983 18.6395C43.7983 18.994 43.9366 19.2621 44.2047 19.4696C44.4729 19.6686 44.8361 19.7724 45.2857 19.7724C45.9429 19.7724 46.4619 19.5907 46.8338 19.2274C47.2056 18.8642 47.3873 18.2503 47.3873 17.4027V17.0999Z" fill="white"/>
<path d="M50.8378 10.6746H52.6279V12.8107H54.2538V14.1079H52.6279V18.5097C52.6279 18.9249 52.697 19.193 52.827 19.3313C52.9566 19.4694 53.216 19.5301 53.5967 19.5301H54.2451V20.8966H52.922C52.4896 20.8966 52.1438 20.8622 51.8669 20.8015C51.5988 20.7324 51.3828 20.6198 51.2355 20.4642C51.0885 20.3 50.9849 20.0838 50.9242 19.8069C50.8723 19.5301 50.8378 19.1843 50.8378 18.7778V14.0991H49.6358V12.8019H50.8378V10.6746Z" fill="white"/>
<path d="M64.4671 14V15.3923C64.5537 15.2455 64.6663 15.1416 64.8131 15.0638C64.9599 14.9859 65.1332 14.9427 65.3232 14.9427C65.4962 14.9427 65.6605 14.9774 65.816 15.0465C65.9718 15.1157 66.1016 15.2195 66.2139 15.3491C66.3263 15.4789 66.4129 15.6432 66.4733 15.8247C66.534 16.0064 66.5685 16.2139 66.5685 16.4474C66.5685 16.6808 66.534 16.8885 66.4733 17.0787C66.4129 17.2602 66.3265 17.4245 66.2139 17.5543C66.1016 17.6841 65.9718 17.788 65.816 17.8571C65.6605 17.9263 65.5047 17.9608 65.3232 17.9608C65.1329 17.9608 64.9599 17.9176 64.8131 17.8397C64.6663 17.7618 64.5537 17.6494 64.4671 17.5111V17.8916H63.8272V14H64.4671ZM64.4414 16.4386C64.4414 16.6029 64.4586 16.7499 64.5018 16.8798C64.545 17.0096 64.5882 17.1047 64.6574 17.1911C64.7265 17.2775 64.8042 17.3381 64.8995 17.3726C64.9946 17.416 65.09 17.4332 65.1936 17.4332C65.4185 17.4332 65.5913 17.3468 65.7211 17.1651C65.842 16.9921 65.9114 16.7499 65.9114 16.4386C65.9114 16.1358 65.8509 15.8937 65.7211 15.7207C65.6 15.5477 65.4183 15.4525 65.1936 15.4525C65.09 15.4525 64.9946 15.47 64.8995 15.5132C64.8044 15.5564 64.7265 15.6168 64.6574 15.6949C64.5882 15.7728 64.5363 15.8764 64.5018 16.0062C64.4586 16.136 64.4414 16.2744 64.4414 16.4386Z" fill="#151B22"/>
<path d="M66.8022 18.8256V18.3413H67.0444C67.1135 18.3413 67.174 18.3413 67.2261 18.3325C67.2782 18.3238 67.3212 18.3153 67.3644 18.2806C67.4076 18.2546 67.4421 18.2114 67.4768 18.1595C67.5112 18.1076 67.5372 18.0297 67.5717 17.9433L67.6064 17.8742L66.5598 15.0029H67.2603L67.9177 17.0698L68.575 15.0029H69.2323L68.2205 17.8827C68.1513 18.0644 68.0907 18.22 68.0213 18.341C67.9609 18.4621 67.8832 18.5572 67.8051 18.6264C67.7187 18.6956 67.6234 18.7475 67.5197 18.7734C67.4074 18.7994 67.2689 18.8166 67.1133 18.8166H66.802L66.8022 18.8256Z" fill="#151B22"/>
</svg>
